<svg width="410" height="352" viewBox="0 0 410 352" fill="none" xmlns="http://www.w3.org/2000/svg">
<path d="M149.334 110.913C145.146 120 136.596 145.908 136.596 145.908C122.476 139.142 115.232 139.968 103.385 148.878C103.385 148.878 128.769 129.076 132.264 106.5C129.958 108.226 153.523 101.826 149.334 110.913Z" fill="#EAC2AB"/>
<path d="M196.353 51.2142C196.353 51.2142 200.473 60.9287 186.707 83.8865C172.942 106.844 156.283 125.183 148.729 121.633C127.849 111.819 124.451 95.3224 120.526 80.903C115.712 63.2211 145.558 30.845 145.558 30.845L165.841 26.5823L196.353 51.2142Z" fill="#EAC2AB"/>
<path d="M223.598 51.1284C225.912 45.2816 225.542 38.718 220.936 32.399C219.603 30.5703 217.664 29.1279 215.405 28.7588C213.706 28.4797 211.86 28.806 210.295 28.1234C205.597 26.0887 207.032 19.1988 202.871 16.6489C199.765 14.7472 195.636 16.7648 191.928 16.6231C189.128 16.5158 186.615 15.1593 184.129 13.9616C177.131 10.5918 171.238 5.50053 163.874 2.67589C157.658 0.293402 150.756 -0.771205 144.072 0.619652C137.097 2.07061 131.075 6.49645 126.821 12.3089C124.28 15.786 122.554 19.9414 122.484 24.1569C122.54 20.6926 115.236 22.5385 113.833 23.5516C108.348 27.5096 104.418 38.1599 104.789 44.5089C105.08 49.5358 106.622 54.3222 106.751 59.3791C107.034 70.4416 105.752 88.8575 123.415 89.158C122.947 83.5259 122.526 77.7865 123.808 72.1973C126.099 62.2424 130.871 49.085 140.786 43.4272C161.722 31.489 168.767 62.5429 184.601 68.4197C199.344 73.9015 218.354 64.3673 223.598 51.1284Z" fill="#212529"/>
<path d="M129.233 54.3221C129.233 54.3221 123.655 43.6846 120.628 56.9364C117.606 70.1925 124.151 74.7815 124.151 74.7815L129.233 54.3221Z" fill="#EAC2AB"/>
<path opacity="0.66" d="M164.568 241.753C163.055 223.595 160.347 204.389 155.815 186.213C152.312 172.163 149.021 152.923 134.116 144.917C106.201 129.918 88.2366 166.947 83.307 186.436C77.6878 208.639 78.4006 232.03 78.1414 254.691C77.91 275.013 74.8273 297.409 77.8082 317.383C78.3358 320.907 79.7244 324.522 82.7007 326.767C90.2686 332.476 98.0726 324.908 104.442 321.543C110.399 318.392 116.708 318.911 123.035 316.795C128.594 314.936 131.33 311.081 135.982 308.085C148.183 300.221 161.319 312.871 174.543 310.502C203.287 305.35 181.343 312.618 169.776 259.061C168.595 253.605 165.105 248.218 164.568 241.753Z" fill="#0D6EFD"/>
<path d="M239.294 201.727C250.213 195.198 254.444 180.542 264.543 172.687C268.658 169.489 273.537 167.591 278.374 165.835C285.28 163.324 292.255 161.01 299.282 158.898C298.842 162.23 296.074 164.698 293.2 166.17C290.325 167.643 287.145 168.48 284.47 170.326C283.289 171.137 282.206 172.176 281.595 173.511C280.221 176.512 281.554 180.117 280.975 183.393C279.887 189.536 273.092 192.043 267.885 195.048C257.133 201.251 250.185 213.472 238.979 218.709C238.979 218.709 154.885 283.466 144.517 281.676C134.149 279.886 119.841 191.562 119.841 191.562C119.841 191.562 109.973 146.041 135.898 167.849C161.823 189.656 145.864 262.096 158.676 254.618C171.479 247.136 239.294 201.727 239.294 201.727Z" fill="#EAC2AB"/>
<path d="M154.566 203.908C154.566 203.908 151.589 147.802 126.497 152.433C101.405 157.065 117.518 220.045 117.518 220.045L158.463 211.914L154.566 203.908Z" fill="#0A58CA"/>
<path d="M211.152 341.178H41.7971C34.2616 341.178 28.0962 335.46 28.0962 328.471V310.558C28.0962 303.569 34.2616 297.851 41.7971 297.851H211.152C218.687 297.851 224.852 303.569 224.852 310.558V328.471C224.848 335.46 218.682 341.178 211.152 341.178Z" fill="#CED4DA"/>
<g opacity="0.66">
<path d="M122.41 352H9.16017C4.11953 352 0 348.175 0 343.505V331.528C0 326.853 4.12416 323.032 9.16017 323.032H122.41C127.451 323.032 131.57 326.857 131.57 331.528V343.505C131.57 348.179 127.446 352 122.41 352Z" fill="#212529"/>
<path d="M116.56 338.229L116.143 338.701C115.981 338.886 115.685 338.911 115.486 338.761L106.039 331.627C105.84 331.476 105.812 331.202 105.974 331.017L106.39 330.545C106.552 330.36 106.849 330.334 107.048 330.485L116.495 337.619C116.689 337.77 116.722 338.044 116.56 338.229Z" fill="white"/>
<path d="M116.56 337.855L116.143 337.383C115.981 337.199 115.685 337.173 115.486 337.323L106.039 344.458C105.84 344.608 105.812 344.883 105.974 345.067L106.39 345.539C106.552 345.724 106.849 345.75 107.048 345.6L116.495 338.465C116.689 338.31 116.722 338.036 116.56 337.855Z" fill="white"/>
<path d="M103.368 338.229L102.951 338.701C102.789 338.886 102.493 338.911 102.294 338.761L92.8469 331.627C92.6479 331.476 92.6201 331.202 92.7821 331.017L93.1987 330.545C93.3607 330.36 93.6569 330.334 93.8559 330.485L103.303 337.619C103.502 337.77 103.53 338.044 103.368 338.229Z" fill="white"/>
<path d="M103.368 337.855L102.951 337.383C102.789 337.199 102.493 337.173 102.294 337.323L92.8469 344.458C92.6479 344.608 92.6201 344.883 92.7821 345.067L93.1987 345.539C93.3607 345.724 93.6569 345.75 93.8559 345.6L103.303 338.465C103.502 338.31 103.53 338.036 103.368 337.855Z" fill="white"/>
<path d="M88.9726 338.229L88.5561 338.701C88.3941 338.886 88.0978 338.911 87.8988 338.761L78.4516 331.627C78.2526 331.476 78.2248 331.202 78.3868 331.017L78.8034 330.545C78.9654 330.36 79.2616 330.334 79.4607 330.485L88.9078 337.619C89.1069 337.77 89.1346 338.044 88.9726 338.229Z" fill="white"/>
<path d="M88.9726 337.855L88.5561 337.383C88.3941 337.199 88.0978 337.173 87.8988 337.323L78.4516 344.458C78.2526 344.608 78.2248 344.883 78.3868 345.067L78.8034 345.539C78.9654 345.724 79.2616 345.75 79.4607 345.6L88.9078 338.465C89.1069 338.31 89.1346 338.036 88.9726 337.855Z" fill="white"/>
</g>
<path opacity="0.26" d="M390.305 217.692L218.867 272.816C207.99 272.816 199.172 264.638 199.172 254.55V176.044C199.172 165.956 207.99 157.778 218.867 157.778L390.305 102.655C401.182 102.655 410 110.832 410 120.92V199.426C410 209.514 401.182 217.692 390.305 217.692Z" fill="#0D6EFD"/>
<path opacity="0.13" d="M379.724 213.06L208.286 268.184C197.409 268.184 188.591 260.006 188.591 249.918V171.416C188.591 161.328 197.409 153.15 208.286 153.15L379.724 98.0269C390.601 98.0269 399.419 106.205 399.419 116.293V194.794C399.419 204.882 390.601 213.06 379.724 213.06Z" fill="#0D6EFD"/>
<path opacity="0.39" d="M276.564 189.592L223.668 206.6C220.312 206.6 217.59 204.075 217.59 200.963V176.739C217.59 173.627 220.312 171.103 223.668 171.103L276.564 154.095C279.92 154.095 282.642 156.619 282.642 159.731V183.955C282.642 187.067 279.92 189.592 276.564 189.592Z" fill="white"/>
<path d="M396.48 76.387L343.583 93.395C340.227 93.395 337.506 90.8708 337.506 87.7586V63.5345C337.506 60.4222 340.227 57.8981 343.583 57.8981L396.48 40.8901C399.836 40.8901 402.557 43.4143 402.557 46.5265V70.7506C402.557 73.8629 399.836 76.387 396.48 76.387Z" fill="#0D6EFD"/>
<path d="M376.428 69.9607L326.346 86.0629C323.166 86.0629 320.592 83.6718 320.592 80.727V57.795C320.592 54.8459 323.17 52.4591 326.346 52.4591L376.428 36.3569C379.608 36.3569 382.181 38.748 382.181 41.6928V64.6248C382.181 67.574 379.603 69.9607 376.428 69.9607Z" fill="#CED4DA"/>
<path d="M393.665 256.894L343.583 272.996C340.403 272.996 337.829 270.605 337.829 267.66V244.728C337.829 241.779 340.408 239.392 343.583 239.392L393.665 223.29C396.845 223.29 399.419 225.681 399.419 228.626V251.558C399.419 254.507 396.845 256.894 393.665 256.894Z" fill="#CED4DA"/>
<path d="M310.557 264.707L257.66 281.715C254.305 281.715 251.583 279.19 251.583 276.078V251.858C251.583 248.746 254.305 246.222 257.66 246.222L310.557 229.214C313.913 229.214 316.635 231.738 316.635 234.85V259.074C316.635 262.182 313.913 264.707 310.557 264.707Z" fill="#0D6EFD"/>
<path opacity="0.51" d="M276.564 233.859L223.668 250.867C220.312 250.867 217.59 248.342 217.59 245.23V221.006C217.59 217.894 220.312 215.37 223.668 215.37L276.564 198.362C279.92 198.362 282.642 200.886 282.642 203.998V228.222C282.642 231.334 279.92 233.859 276.564 233.859Z" fill="white"/>
<path opacity="0.51" d="M301.971 218.83V218.83C300.68 218.83 299.62 217.847 299.62 216.649V180.083C299.62 178.885 300.68 177.902 301.971 177.902V177.902C303.262 177.902 304.322 178.885 304.322 180.083V216.649C304.322 217.847 303.267 218.83 301.971 218.83Z" fill="white"/>
<path opacity="0.51" d="M314.621 147.312V147.312C314.186 146.183 314.829 144.93 316.047 144.526L378.608 123.822C379.825 123.419 381.177 124.015 381.612 125.144V125.144C382.047 126.273 381.404 127.527 380.186 127.93L317.625 148.634C316.408 149.038 315.056 148.441 314.621 147.312Z" fill="white"/>
<path opacity="0.51" d="M314.621 155.22V155.22C314.186 154.091 314.829 152.837 316.047 152.434L378.608 131.729C379.825 131.326 381.177 131.923 381.612 133.052V133.052C382.047 134.181 381.404 135.434 380.186 135.838L317.625 156.542C316.408 156.941 315.056 156.349 314.621 155.22Z" fill="white"/>
<path opacity="0.51" d="M314.621 163.122V163.122C314.186 161.993 314.829 160.74 316.047 160.336L378.608 139.632C379.825 139.229 381.177 139.826 381.612 140.955V140.955C382.047 142.084 381.404 143.337 380.186 143.741L317.625 164.445C316.408 164.848 315.056 164.251 314.621 163.122Z" fill="white"/>
<path opacity="0.51" d="M314.621 171.03V171.03C314.186 169.901 314.829 168.647 316.047 168.244L378.608 147.54C379.825 147.136 381.177 147.733 381.612 148.862V148.862C382.047 149.991 381.404 151.244 380.186 151.648L317.625 172.352C316.408 172.751 315.056 172.159 314.621 171.03Z" fill="white"/>
<path opacity="0.51" d="M314.621 178.933V178.933C314.186 177.804 314.829 176.55 316.047 176.147L378.608 155.443C379.825 155.039 381.177 155.636 381.612 156.765V156.765C382.047 157.894 381.404 159.147 380.186 159.551L317.625 180.255C316.408 180.658 315.056 180.062 314.621 178.933Z" fill="white"/>
<path opacity="0.51" d="M314.621 186.836V186.836C314.186 185.707 314.829 184.453 316.047 184.05L378.608 163.346C379.825 162.942 381.177 163.539 381.612 164.668V164.668C382.047 165.797 381.404 167.05 380.186 167.454L317.625 188.158C316.408 188.561 315.056 187.965 314.621 186.836Z" fill="white"/>
<path opacity="0.51" d="M314.621 194.743V194.743C314.186 193.614 314.829 192.36 316.047 191.957L378.608 171.253C379.825 170.849 381.177 171.446 381.612 172.575V172.575C382.047 173.704 381.404 174.958 380.186 175.361L317.625 196.065C316.408 196.464 315.056 195.872 314.621 194.743Z" fill="white"/>
<path opacity="0.51" d="M314.621 202.646V202.646C314.186 201.517 314.829 200.263 316.047 199.86L378.608 179.156C379.825 178.752 381.177 179.349 381.612 180.478V180.478C382.047 181.607 381.404 182.861 380.186 183.264L317.625 203.968C316.408 204.372 315.056 203.775 314.621 202.646Z" fill="white"/>
<path opacity="0.51" d="M314.621 210.553V210.553C314.186 209.424 314.829 208.171 316.047 207.767L378.608 187.063C379.825 186.66 381.177 187.256 381.612 188.385V188.385C382.047 189.514 381.404 190.768 380.186 191.171L317.625 211.875C316.408 212.275 315.056 211.682 314.621 210.553Z" fill="white"/>
<path opacity="0.51" d="M314.621 218.456V218.456C314.186 217.327 314.829 216.074 316.047 215.67L378.608 194.966C379.825 194.563 381.177 195.159 381.612 196.288V196.288C382.047 197.417 381.404 198.671 380.186 199.074L317.625 219.778C316.408 220.182 315.056 219.585 314.621 218.456Z" fill="white"/>
<path d="M286.224 84.2856C286.808 83.9508 287.419 83.6503 288.039 83.3841C296.301 79.8684 306.105 83.2425 309.9 90.9051C313.691 98.5677 310.053 107.66 301.791 111.176L300.143 107.844C306.424 105.17 309.187 98.2586 306.308 92.4333C303.425 86.608 295.972 84.0452 289.691 86.7153C289.219 86.9171 288.752 87.1489 288.307 87.4022L286.224 84.2856Z" fill="#CED4DA"/>
<path d="M296.093 111.583L303.387 112.219L300.332 106.037L296.093 111.583Z" fill="#CED4DA"/>
<path d="M294.695 114.065C294.111 114.399 293.5 114.7 292.88 114.966C284.618 118.482 274.81 115.108 271.019 107.445C267.228 99.7826 270.866 90.6905 279.128 87.1747L280.776 90.5059C274.495 93.1803 271.732 100.092 274.611 105.917C277.494 111.742 284.947 114.305 291.228 111.635C291.7 111.433 292.167 111.201 292.612 110.948L294.695 114.065Z" fill="#CED4DA"/>
<path d="M284.831 86.7669L277.531 86.1316L280.586 92.3089L284.831 86.7669Z" fill="#CED4DA"/>
<path opacity="0.36" d="M301.971 168.759C308.641 168.759 314.047 163.744 314.047 157.559C314.047 151.373 308.641 146.359 301.971 146.359C295.301 146.359 289.895 151.373 289.895 157.559C289.895 163.744 295.301 168.759 301.971 168.759Z" fill="#0D6EFD"/>
<path opacity="0.36" d="M301.971 165.479C306.688 165.479 310.511 161.933 310.511 157.559C310.511 153.185 306.688 149.639 301.971 149.639C297.255 149.639 293.431 153.185 293.431 157.559C293.431 161.933 297.255 165.479 301.971 165.479Z" fill="#0D6EFD"/>
<path d="M301.971 163.161C305.307 163.161 308.012 160.653 308.012 157.559C308.012 154.465 305.307 151.957 301.971 151.957C298.635 151.957 295.931 154.465 295.931 157.559C295.931 160.653 298.635 163.161 301.971 163.161Z" fill="#0D6EFD"/>
</svg>
