<?xml version="1.0" standalone="no"?>
<!DOCTYPE svg PUBLIC "-//W3C//DTD SVG 20010904//EN"
 "http://www.w3.org/TR/2001/REC-SVG-20010904/DTD/svg10.dtd">
<svg version="1.0" xmlns="http://www.w3.org/2000/svg"
 width="512.000000pt" height="512.000000pt" viewBox="0 0 512.000000 512.000000"
 preserveAspectRatio="xMidYMid meet">
<metadata>
Created by potrace 1.14, written by Peter Selinger 2001-2017
</metadata>
<g transform="translate(0.000000,512.000000) scale(0.100000,-0.100000)"
fill="#000000" stroke="none">
<path d="M2456 5101 c-19 -21 -29 -78 -15 -86 17 -11 9 -32 -15 -43 -30 -13
-41 -55 -23 -91 13 -25 12 -28 -6 -37 -37 -17 -47 -44 -32 -86 7 -21 10 -38 6
-38 -4 0 -17 -9 -29 -20 -23 -22 -31 -83 -12 -95 15 -9 12 -25 -4 -25 -20 0
-56 -48 -56 -75 0 -12 7 -28 15 -35 20 -17 19 -27 -5 -35 -24 -8 -48 -53 -42
-80 2 -11 11 -28 20 -37 14 -17 13 -18 -6 -18 -51 0 -83 -81 -46 -118 15 -15
15 -17 -9 -25 -28 -9 -58 -62 -50 -86 3 -9 14 -25 24 -36 18 -20 18 -21 -4
-22 -29 -3 -57 -38 -57 -73 0 -33 40 -70 75 -70 57 0 89 77 50 120 -17 19 -17
20 7 29 13 5 30 16 37 25 19 23 16 74 -5 97 -16 18 -16 19 3 19 22 0 53 29 53
50 0 9 6 8 20 -5 l21 -19 -25 -15 c-38 -23 -48 -111 -13 -111 7 0 -3 -9 -20
-20 -39 -24 -52 -63 -32 -99 14 -25 13 -27 -16 -46 -68 -47 -28 -145 54 -129
52 11 76 90 37 119 -11 9 -8 13 15 24 16 7 32 23 35 37 7 29 15 30 32 4 10
-16 10 -20 -1 -20 -44 0 -63 -84 -27 -120 42 -42 120 -11 120 48 0 15 -4 33
-9 40 -5 9 2 23 20 42 31 31 38 71 16 92 -11 10 -8 16 17 33 33 22 47 74 27
99 -8 9 -3 18 19 35 23 16 30 30 30 54 0 18 -5 38 -10 43 -7 7 0 17 20 32 32
24 40 65 20 102 -8 15 -5 19 13 24 13 3 28 16 34 28 10 23 10 34 -2 75 -5 16
-2 23 14 28 29 9 43 53 29 93 -6 19 -3 24 17 32 34 13 53 69 33 96 -6 8 3 23
22 42 30 31 35 50 21 87 -6 14 -2 24 14 37 31 24 40 64 20 94 -25 38 -50 47
-89 30 -39 -16 -55 -53 -39 -89 8 -18 4 -27 -23 -52 -33 -31 -37 -60 -13 -91
6 -7 0 -16 -16 -24 -33 -18 -47 -61 -30 -93 12 -23 11 -26 -11 -36 -33 -15
-49 -52 -37 -88 8 -24 6 -31 -19 -55 -28 -26 -35 -55 -20 -86 5 -12 -2 -26
-24 -49 l-31 -32 -11 24 c-10 21 -8 26 9 35 28 16 42 57 30 91 -8 24 -6 30 15
43 29 20 39 53 25 88 -9 23 -7 29 14 42 29 19 39 52 27 86 -8 21 -4 29 19 51
30 28 36 57 19 88 -7 14 -3 22 20 40 23 16 30 30 30 54 -1 43 -19 64 -60 72
-28 5 -40 2 -57 -15 -25 -23 -31 -78 -11 -98 8 -8 5 -14 -14 -23 -34 -15 -50
-51 -38 -85 14 -35 13 -44 -5 -44 -8 0 -22 -14 -30 -31 -13 -24 -14 -37 -6
-61 6 -17 11 -32 11 -33 0 -2 -9 -5 -20 -8 -11 -3 -25 -18 -30 -33 -11 -28
-10 -40 5 -76 5 -13 3 -18 -8 -18 -18 0 -47 -42 -47 -67 0 -10 7 -28 15 -40
13 -19 13 -21 -5 -26 -10 -3 -28 -20 -39 -38 -14 -22 -21 -28 -21 -16 0 9 -4
17 -10 17 -5 0 -10 5 -10 10 0 6 6 10 13 10 37 0 60 67 37 109 -7 14 -3 22 20
40 23 17 30 30 30 56 0 18 -4 37 -10 40 -14 9 -12 25 3 25 36 0 67 97 37 115
-6 3 3 18 20 32 22 18 30 33 30 58 0 19 -4 37 -10 40 -15 9 -12 25 4 25 21 0
46 39 46 70 0 57 -86 93 -124 51z m82 -783 c-23 -15 -28 -25 -28 -57 0 -22 5
-43 11 -47 6 -3 -2 -14 -20 -25 -17 -10 -31 -24 -31 -30 0 -8 -4 -8 -15 1 -13
11 -11 16 15 40 33 30 37 51 17 90 -12 23 -10 26 18 40 19 9 31 24 34 40 3 25
3 25 15 -5 12 -28 11 -31 -16 -47z m-129 30 c12 -16 11 -18 -7 -18 -15 0 -19
5 -15 20 3 12 6 19 7 18 1 -2 8 -11 15 -20z m-69 -65 c0 -7 -4 -13 -9 -13 -5
0 -13 6 -19 13 -8 10 -6 13 9 13 10 0 19 -6 19 -13z m144 -202 c3 -5 -1 -11
-9 -14 -9 -4 -12 -1 -8 9 6 16 10 17 17 5z m-58 -63 c-3 -13 -5 -27 -6 -33 -1
-5 -5 1 -9 15 -8 27 -5 40 10 40 5 0 7 -10 5 -22z"/>
<path d="M2291 5084 c-23 -30 -27 -64 -9 -82 8 -8 3 -18 -20 -41 -36 -33 -43
-79 -16 -105 12 -13 13 -16 1 -16 -43 0 -76 -92 -42 -120 14 -11 12 -15 -14
-31 -37 -22 -47 -58 -29 -96 13 -27 12 -29 -17 -48 -39 -26 -47 -83 -16 -112
l20 -19 -21 -1 c-52 -4 -80 -82 -43 -123 17 -19 17 -20 -11 -30 -35 -14 -44
-26 -44 -65 1 -41 21 -65 61 -71 68 -11 106 71 57 123 l-21 23 21 0 c51 0 79
71 47 117 -14 19 -13 21 8 27 45 11 66 88 31 117 -12 10 -9 14 18 28 42 21 58
69 35 104 -15 23 -14 25 9 37 33 18 46 67 27 98 -8 13 -13 25 -11 27 2 1 13 8
26 14 34 18 46 57 27 94 -18 37 -18 37 -2 37 23 0 50 38 50 70 0 67 -81 96
-122 44z"/>
<path d="M2142 5083 c-7 -3 -19 -18 -28 -34 -13 -27 -13 -33 1 -61 15 -31 9
-47 -17 -48 -13 0 -35 -54 -30 -75 2 -11 11 -28 20 -37 14 -16 14 -18 0 -18
-24 0 -57 -32 -62 -60 -4 -26 9 -60 28 -72 6 -4 0 -11 -15 -16 -55 -22 -72
-89 -30 -124 21 -16 21 -18 5 -18 -45 -1 -82 -62 -63 -104 11 -24 47 -46 75
-46 8 0 26 11 39 25 38 37 30 100 -15 118 -9 3 -5 6 11 6 32 1 69 39 69 72 0
13 -7 35 -16 47 -14 21 -14 23 10 32 47 17 61 78 26 115 -19 21 -19 21 3 22
48 4 76 83 41 117 -14 15 -13 17 10 26 47 18 61 80 26 118 -20 21 -58 27 -88
15z"/>
<path d="M2963 5068 c-27 -13 -43 -56 -32 -85 6 -18 2 -28 -21 -51 -28 -29
-32 -53 -15 -94 4 -11 0 -18 -13 -22 -31 -10 -48 -65 -31 -97 6 -13 2 -21 -16
-33 -29 -19 -40 -52 -27 -85 7 -20 4 -29 -22 -52 -29 -26 -30 -29 -20 -67 10
-37 9 -41 -12 -51 -29 -13 -39 -51 -26 -91 9 -24 8 -30 -3 -30 -32 0 -62 -89
-35 -105 6 -4 -2 -18 -20 -35 -32 -30 -40 -76 -18 -98 7 -7 8 -12 1 -12 -5 0
-22 -11 -37 -25 -26 -24 -28 -43 -11 -87 4 -11 0 -20 -14 -27 -17 -10 -33 -37
-36 -66 -1 -5 5 -22 14 -37 26 -47 95 -46 121 2 14 25 13 63 -2 78 -7 7 -8 12
-2 12 19 0 54 37 58 61 2 13 -1 32 -6 42 -7 14 -2 24 21 46 31 29 36 49 22 85
-5 13 1 26 22 48 29 28 31 46 13 89 -5 10 1 20 18 28 27 15 41 63 26 91 -13
25 -13 30 4 30 30 0 55 70 36 100 -6 9 1 23 21 41 30 28 36 57 19 89 -8 15 -6
20 8 25 32 10 56 85 32 100 -15 9 -12 25 4 25 35 0 61 81 34 108 -7 7 -8 12
-2 12 22 0 54 42 54 69 0 56 -57 93 -107 69z"/>
<path d="M1965 5035 c-14 -13 -25 -30 -25 -37 0 -31 13 -56 33 -65 21 -10 20
-11 -10 -17 -60 -14 -79 -89 -32 -128 l21 -18 -21 0 c-33 0 -70 -46 -65 -78 7
-39 38 -65 75 -65 62 0 91 74 47 120 -19 20 -19 23 -4 23 25 0 66 45 66 73 0
13 -10 37 -22 53 -12 16 -18 26 -14 22 14 -12 65 21 72 46 19 79 -65 128 -121
71z"/>
<path d="M3123 5037 c-31 -14 -49 -61 -34 -93 14 -32 14 -34 -4 -34 -28 0 -47
-60 -33 -108 2 -5 -8 -18 -20 -29 -25 -19 -31 -52 -19 -90 6 -16 3 -23 -12
-28 -28 -9 -43 -53 -31 -90 5 -14 -1 -27 -23 -47 -29 -28 -31 -45 -13 -90 5
-11 1 -18 -13 -23 -28 -9 -47 -66 -31 -94 5 -10 -1 -23 -22 -43 -24 -22 -28
-33 -24 -59 2 -17 7 -33 9 -36 3 -3 -9 -17 -26 -33 -30 -27 -31 -30 -21 -69
10 -36 9 -41 -7 -46 -28 -9 -42 -43 -35 -83 4 -29 1 -38 -19 -54 -49 -38 -14
-128 50 -128 14 0 37 11 50 25 26 25 31 54 15 84 -7 14 -4 21 15 31 29 16 42
68 26 99 -10 17 -9 21 3 21 34 0 61 81 36 106 -7 7 0 17 20 32 23 18 30 30 30
57 0 18 -5 37 -11 41 -8 4 -2 12 14 21 29 15 43 50 33 85 -4 16 2 31 21 50 21
22 25 34 21 65 -4 31 0 42 19 60 24 23 30 62 13 94 -8 15 -7 19 4 19 28 0 49
46 42 90 -3 23 -2 40 3 40 34 0 56 81 29 108 -9 9 -9 12 3 12 20 0 44 28 51
57 6 24 -25 83 -44 84 -7 0 -20 2 -28 3 -8 2 -25 -1 -37 -7z"/>
<path d="M1801 4994 c-12 -15 -21 -32 -21 -38 1 -69 76 -106 125 -61 27 26 32
54 14 88 -16 30 -28 37 -66 37 -22 0 -38 -8 -52 -26z"/>
<path d="M3295 4990 c-41 -16 -64 -71 -42 -98 8 -10 4 -19 -17 -35 -29 -23
-36 -54 -23 -94 6 -16 3 -23 -12 -28 -28 -9 -43 -53 -30 -90 5 -15 0 -26 -18
-40 -25 -21 -33 -54 -20 -91 6 -17 3 -23 -13 -27 -26 -7 -43 -52 -32 -86 8
-22 5 -29 -15 -46 -27 -23 -36 -56 -23 -90 7 -19 6 -25 -9 -30 -28 -8 -46 -60
-33 -90 9 -20 7 -26 -13 -39 -30 -20 -40 -53 -26 -88 8 -22 6 -27 -14 -36 -27
-13 -41 -62 -26 -91 9 -16 7 -23 -14 -38 -44 -32 -37 -100 12 -122 34 -16 47
-14 78 11 24 19 27 26 22 64 -4 38 -1 45 20 60 22 14 24 22 21 62 -3 40 0 50
20 66 21 16 24 26 19 62 -4 37 -1 46 18 58 26 17 35 53 23 85 -6 19 -3 27 18
44 23 18 26 26 21 63 -4 37 -1 46 18 58 25 17 35 52 24 84 -6 16 -1 28 21 51
28 27 31 43 15 82 -4 11 2 22 18 32 27 18 38 53 25 86 -6 17 -2 27 18 45 27
23 36 59 23 87 -6 11 0 23 16 37 60 52 2 152 -70 122z"/>
<path d="M1650 4950 c-46 -46 -15 -123 49 -123 42 0 71 28 71 69 0 64 -76 98
-120 54z"/>
<path d="M3444 4929 c-28 -14 -42 -46 -37 -86 2 -19 0 -33 -7 -33 -5 0 -19
-14 -29 -31 -15 -25 -17 -38 -10 -57 8 -22 6 -29 -16 -50 -22 -20 -26 -31 -23
-65 3 -33 -1 -44 -24 -67 -27 -27 -29 -41 -13 -91 5 -13 2 -19 -10 -19 -23 0
-48 -65 -35 -89 8 -16 4 -25 -20 -50 -30 -29 -38 -63 -21 -90 6 -9 1 -20 -16
-35 -26 -22 -32 -55 -19 -93 5 -17 4 -23 -8 -23 -30 0 -55 -84 -32 -107 3 -3
-6 -15 -20 -27 -27 -22 -42 -80 -24 -91 16 -10 12 -23 -11 -30 -24 -8 -42 -50
-35 -80 8 -33 59 -57 92 -45 38 15 53 39 49 80 -3 27 2 39 21 55 25 21 33 54
20 92 -5 16 -2 23 13 28 25 8 41 53 30 84 -7 18 -4 27 15 42 29 23 40 62 25
90 -11 22 -10 24 28 47 15 9 23 65 12 83 -4 8 4 23 22 40 29 27 34 48 20 83
-5 13 1 26 21 46 30 30 34 50 18 80 -8 14 -5 21 14 34 28 18 42 66 27 94 -8
16 -6 21 14 32 29 16 42 68 26 99 -10 17 -9 21 3 21 19 0 46 38 46 66 0 48
-62 85 -106 63z"/>
<path d="M1509 4895 c-71 -38 -17 -147 62 -125 27 8 28 7 23 -18 -8 -39 28
-82 67 -82 42 0 80 39 73 76 -10 56 -50 79 -101 59 -31 -13 -32 -13 -22 9 14
30 -4 74 -36 86 -33 12 -34 12 -66 -5z"/>
<path d="M1773 4855 c-30 -21 -35 -72 -9 -102 44 -51 126 -21 126 46 0 32 -8
44 -37 60 -29 15 -54 14 -80 -4z"/>
<path d="M3570 4848 c-17 -18 -21 -32 -17 -60 4 -30 0 -41 -20 -60 -21 -19
-24 -30 -20 -64 3 -33 0 -43 -15 -53 -26 -16 -37 -50 -27 -84 7 -24 4 -32 -17
-50 -28 -25 -36 -53 -22 -80 7 -13 2 -24 -21 -47 -24 -24 -28 -36 -24 -62 3
-18 7 -35 9 -37 2 -2 -5 -11 -17 -19 -27 -19 -40 -56 -30 -84 6 -18 2 -28 -20
-49 -30 -28 -37 -65 -19 -100 8 -15 7 -19 -4 -19 -28 0 -49 -46 -42 -90 5 -32
3 -40 -9 -40 -14 0 -37 -32 -41 -59 -2 -8 2 -23 8 -34 8 -15 5 -24 -16 -46
-47 -49 -29 -110 36 -126 22 -6 33 -1 57 23 27 27 29 33 21 63 -7 23 -7 35 1
38 40 13 60 72 39 112 -7 13 -7 19 0 19 36 0 66 80 39 107 -8 8 -5 14 10 22
19 11 21 9 21 -15 0 -15 7 -36 17 -46 14 -15 14 -18 1 -18 -36 0 -59 -56 -43
-107 5 -16 2 -23 -13 -27 -29 -10 -48 -60 -33 -92 14 -32 14 -34 -4 -34 -22 0
-53 -56 -48 -85 12 -58 97 -81 134 -36 21 26 25 71 8 88 -8 8 -3 15 18 25 17
8 32 26 38 45 10 30 12 31 22 13 10 -15 8 -21 -13 -35 -34 -22 -44 -53 -30
-90 12 -28 11 -30 -18 -45 -59 -29 -61 -110 -4 -135 18 -7 44 -11 58 -9 49 9
73 69 46 116 -10 15 -14 27 -9 26 41 -11 80 51 62 99 -5 14 -8 26 -7 27 2 1
15 7 29 13 36 15 52 62 34 97 -13 25 -12 27 16 41 16 9 29 21 30 28 0 6 2 21
4 32 2 11 -2 30 -10 41 -13 20 -12 22 5 27 14 4 18 0 15 -15 -5 -22 11 -58 28
-70 7 -4 0 -12 -15 -19 -15 -6 -32 -25 -39 -42 -11 -25 -10 -34 3 -58 16 -26
15 -28 -8 -33 -35 -9 -58 -49 -50 -90 4 -19 12 -37 19 -39 7 -3 0 -6 -14 -6
-39 -1 -72 -43 -67 -83 3 -18 8 -41 13 -50 5 -14 2 -18 -13 -18 -26 0 -62 -45
-62 -77 0 -29 42 -73 70 -73 20 0 21 -14 4 -68 -2 -8 10 -27 26 -44 22 -22 37
-29 55 -25 25 4 34 -6 16 -18 -5 -3 -12 -18 -16 -34 -9 -42 18 -90 55 -98 l30
-5 -20 -26 c-11 -13 -20 -38 -20 -54 0 -34 39 -78 69 -78 19 0 19 -2 -4 -25
-34 -33 -34 -87 -1 -120 22 -22 25 -33 25 -107 1 -98 5 -122 33 -208 70 -213
253 -378 469 -422 35 -7 68 -18 72 -26 6 -9 13 -10 20 -4 12 10 127 21 124 12
-1 -3 1 -6 6 -7 4 -2 6 0 5 3 -2 4 31 15 72 26 144 37 273 125 362 246 79 107
119 232 124 392 2 58 6 121 9 141 8 41 -13 84 -46 94 -19 6 -18 8 5 36 31 37
28 85 -8 115 l-25 22 25 23 c34 32 33 90 -2 118 -15 12 -35 21 -46 21 -18 0
-17 2 3 29 16 22 20 38 15 62 -6 30 -39 69 -58 69 -5 0 -4 10 3 21 35 67 3
129 -67 129 l-38 0 22 20 c31 29 30 84 -3 115 -29 26 -61 27 -98 2 -22 -14
-26 -14 -40 1 -22 22 -81 20 -107 -3 -18 -16 -22 -17 -37 -2 -31 27 -74 26
-103 -3 -20 -20 -21 -20 -45 -2 -13 10 -34 18 -47 16 -13 -1 -26 -3 -30 -3 -5
-1 -16 -9 -27 -20 -18 -18 -19 -18 -36 2 -15 18 -15 19 -1 14 20 -8 67 9 83
30 11 14 15 13 39 -6 34 -27 56 -27 91 3 27 23 28 23 47 5 25 -24 67 -24 97 0
24 19 25 19 48 0 76 -61 173 43 107 114 -15 16 -36 27 -51 27 -25 0 -25 1 -11
22 22 31 20 63 -6 92 -35 38 -86 39 -123 2 -24 -24 -25 -24 -35 -5 -6 10 -7
19 -3 18 67 -11 112 82 63 131 -32 32 -85 30 -116 -5 -15 -17 -25 -20 -32 -13
-8 8 -2 16 21 27 63 31 69 100 12 137 -37 24 -85 9 -106 -34 -13 -25 -18 -29
-23 -16 -9 25 -7 34 8 34 21 0 56 48 56 77 0 34 -42 73 -80 73 -30 0 -70 -29
-70 -51 0 -8 -5 -7 -16 2 -14 11 -13 14 10 26 52 27 61 89 21 129 -22 22 -32
25 -66 20 -40 -6 -41 -5 -35 20 15 58 -52 108 -109 82 -32 -14 -53 -75 -36
-106 9 -17 8 -22 -9 -27 -35 -11 -53 -61 -36 -105 3 -10 -6 -22 -27 -35 -35
-22 -49 -74 -27 -101 10 -11 8 -15 -6 -20 -11 -4 -22 -9 -27 -11 -4 -3 -5 13
-1 35 4 25 2 42 -5 46 -15 10 -14 26 2 26 36 0 61 72 38 109 -7 11 -4 18 12
26 30 15 49 54 43 91 -3 25 0 34 19 44 33 18 46 59 30 97 -14 33 -32 43 -75
43 -50 0 -84 -57 -62 -104 9 -20 7 -25 -14 -35 -23 -10 -24 -9 -18 13 3 14 1
32 -4 42 -8 14 -4 24 19 45 70 65 -6 165 -91 119 -23 -12 -41 -62 -29 -81 14
-23 10 -35 -15 -47 -20 -9 -24 -8 -21 6 1 9 -2 28 -7 40 -7 20 -4 28 17 44 49
39 19 128 -43 128 -15 0 -32 -4 -39 -8 -21 -14 -42 -64 -34 -84 5 -15 0 -28
-22 -49 -29 -29 -31 -47 -13 -89 4 -10 -2 -19 -16 -25 -31 -14 -45 -58 -31
-95 9 -23 8 -30 -1 -30 -29 0 -49 -38 -43 -81 5 -36 2 -45 -19 -61 -26 -21
-32 -64 -14 -99 6 -11 7 -19 3 -18 -43 7 -70 -49 -48 -102 4 -12 -1 -18 -19
-21 -21 -4 -25 -1 -29 26 -4 22 0 36 12 46 32 28 42 56 31 85 -9 23 -6 30 20
55 33 31 35 37 20 75 -8 22 -6 29 15 48 27 24 37 62 24 88 -6 13 -2 21 15 33
27 17 42 67 28 91 -6 12 -1 24 20 45 28 29 33 49 19 84 -5 13 1 26 20 46 16
15 26 35 24 46 -2 10 -4 22 -4 27 -1 4 -10 16 -21 27 -27 27 -74 26 -100 -2z
m222 -327 c-2 -16 1 -37 6 -48 8 -15 6 -20 -15 -30 -18 -9 -23 -9 -20 0 2 7 0
25 -5 42 -7 25 -4 33 14 47 13 10 23 18 24 18 0 0 -1 -13 -4 -29z m131 -95
c-3 -13 0 -34 7 -46 10 -18 9 -24 -1 -31 -23 -14 -31 -10 -24 11 4 11 0 34 -9
50 -8 17 -11 28 -6 25 5 -3 11 -1 15 5 11 19 22 10 18 -14z m-177 -28 c-2 -13
1 -31 6 -42 7 -13 6 -21 -3 -27 -22 -14 -29 -11 -29 14 0 13 -5 28 -11 34 -8
8 -5 13 10 18 12 3 21 11 21 16 0 5 2 9 5 9 3 0 3 -10 1 -22z m480 -60 c0 -24
3 -51 8 -60 6 -13 4 -18 -8 -18 -39 0 -78 -95 -46 -115 17 -11 11 -23 -15 -29
-43 -11 -55 -60 -30 -120 6 -13 5 -17 -2 -13 -6 4 -25 -7 -42 -24 -17 -16 -36
-27 -42 -24 -6 5 1 14 19 25 38 23 50 71 28 104 -14 23 -14 24 9 30 45 11 64
85 32 125 -7 9 -8 12 -1 8 14 -8 61 27 68 51 3 9 2 31 -2 47 -7 23 -5 33 7 42
9 7 16 13 16 13 0 0 1 -19 1 -42z m-340 -50 c0 -18 3 -40 7 -48 5 -10 -2 -20
-23 -32 -23 -13 -30 -24 -30 -48 0 -17 5 -40 10 -51 8 -14 7 -19 -3 -19 -38 0
-64 -70 -41 -107 13 -20 13 -23 0 -23 -8 0 -21 -3 -29 -6 -11 -4 -13 1 -10 19
3 14 0 34 -6 45 -9 16 -7 21 9 25 27 7 54 71 40 97 -13 24 -13 30 1 30 33 0
61 76 40 109 -7 11 -3 18 12 27 12 7 22 12 23 13 0 1 0 -14 0 -31z m-193 -28
c-3 -11 1 -30 10 -43 14 -21 13 -23 -8 -33 -19 -9 -22 -9 -18 2 3 8 0 27 -5
44 -9 24 -8 31 6 40 9 5 18 10 19 10 0 0 -1 -9 -4 -20z m656 -121 c-16 -10
-23 -4 -14 10 3 6 11 8 17 5 6 -4 5 -9 -3 -15z m-694 -8 c-2 -10 3 -30 10 -44
11 -22 11 -26 -2 -31 -25 -10 -30 -7 -26 18 3 13 0 33 -6 44 -8 15 -8 22 2 25
22 9 26 7 22 -12z m632 -40 c-11 -29 -11 -29 -22 -8 -9 19 -8 23 10 29 11 3
21 6 22 7 1 1 -4 -12 -10 -28z m-344 -31 c-3 -11 -9 -17 -14 -14 -14 8 -10 34
5 34 9 0 12 -7 9 -20z m356 -54 c-2 -1 -16 -7 -32 -14 -19 -8 -29 -22 -34 -43
-6 -31 -6 -31 -18 -8 -11 20 -10 25 19 44 17 11 32 31 34 44 l4 23 15 -22 c8
-12 13 -22 12 -24z m155 28 c9 -23 8 -24 -12 -24 -19 0 -46 -24 -54 -49 -3
-11 -6 -10 -16 2 -11 13 -9 17 15 29 15 7 32 23 38 36 11 26 21 28 29 6z
m-833 -88 c13 -15 11 -26 -6 -26 -35 0 -52 -60 -31 -110 5 -11 1 -16 -14 -16
-14 0 -20 7 -20 24 0 13 -5 32 -10 43 -8 14 -7 19 3 19 35 0 65 66 46 103 -8
15 -8 22 2 28 11 6 15 0 17 -24 2 -17 8 -36 13 -41z m339 39 c12 -14 4 -20
-22 -16 -4 0 -16 -11 -27 -25 -12 -15 -25 -23 -32 -18 -8 5 -3 11 14 20 14 8
28 23 32 34 8 24 18 25 35 5z m272 -126 c-22 -8 -21 -9 -15 25 l6 29 13 -24
c11 -21 10 -25 -4 -30z m158 13 c-11 -2 -30 -16 -43 -32 -18 -21 -27 -26 -36
-17 -17 17 -13 24 17 30 16 3 34 17 42 31 12 24 14 24 26 8 11 -14 10 -17 -6
-20z m167 19 c10 -16 9 -18 -7 -14 -13 3 -30 -5 -49 -24 -26 -27 -30 -28 -39
-12 -10 15 -8 17 10 16 12 -1 30 10 42 25 26 32 28 33 43 9z m-467 -41 c0 -5
-4 -10 -10 -10 -5 0 -10 5 -10 10 0 6 5 10 10 10 6 0 10 -4 10 -10z m-188 -36
c-43 -18 -59 -62 -38 -106 13 -25 12 -27 -10 -32 -14 -4 -33 -21 -44 -39 -18
-28 -20 -30 -20 -9 0 12 -4 22 -10 22 -5 0 -10 5 -10 10 0 6 8 10 17 10 44 0
74 85 41 118 -9 9 -8 12 4 12 9 0 30 11 45 24 21 18 31 22 41 13 10 -8 7 -13
-16 -23z m280 7 c-14 -24 -18 -27 -25 -15 -5 9 -7 16 -5 17 1 1 12 7 23 14 11
6 21 12 22 12 1 1 -6 -12 -15 -28z m-162 -18 c0 -5 -4 -13 -8 -20 -6 -9 -11
-7 -20 7 -11 17 -10 20 8 20 11 0 20 -3 20 -7z m665 -76 c21 -3 25 -8 25 -29
-1 -8 -6 -6 -14 5 -8 10 -30 21 -50 24 -29 4 -42 1 -59 -15 -21 -20 -23 -20
-46 -3 l-23 18 29 -4 c21 -4 38 2 58 20 28 24 29 24 44 6 9 -10 25 -20 36 -22z
m-1172 12 c-4 -15 -9 -17 -17 -9 -8 8 -7 13 4 20 8 5 16 10 17 10 0 0 -1 -9
-4 -21z m813 -21 c-17 -3 -38 -16 -47 -27 -14 -17 -19 -18 -28 -7 -9 11 -6 15
13 20 14 3 33 17 43 30 17 22 19 23 34 7 15 -15 13 -17 -15 -23z m173 28 c9
-11 6 -14 -18 -18 -26 -4 -28 -2 -17 14 13 22 20 22 35 4z m-470 -38 c1 -5 -6
-8 -15 -8 -11 0 -14 5 -10 16 3 9 6 21 7 27 0 12 17 -20 18 -35z m161 17 c11
-13 8 -15 -13 -15 -19 0 -25 4 -21 15 4 8 10 15 14 15 4 0 13 -7 20 -15z m240
-26 c-10 -17 -14 -18 -27 -7 -14 11 -13 13 8 19 13 4 25 7 27 8 1 1 -2 -8 -8
-20z m-311 -20 c-9 -17 -13 -19 -20 -8 -7 12 3 22 29 28 1 1 -2 -9 -9 -20z
m-156 -29 c-4 -16 -8 -18 -19 -9 -16 13 -10 29 11 29 8 0 11 -7 8 -20z m321
-59 c16 -18 16 -19 -20 -23 -29 -3 -33 -2 -20 7 9 7 16 17 16 24 0 15 4 14 24
-8z m-317 -33 c-21 -13 -28 -9 -18 11 6 10 9 20 8 22 -1 2 4 -2 10 -10 10 -12
10 -16 0 -23z m161 21 c11 -14 9 -16 -12 -16 -22 0 -24 2 -15 19 6 11 12 18
13 16 1 -1 7 -10 14 -19z m-315 -12 c3 -8 -7 -18 -23 -25 -15 -7 -31 -22 -36
-33 l-9 -21 -20 22 c-16 17 -16 20 -2 14 11 -4 26 4 44 24 32 34 39 37 46 19z
m254 -31 c-9 -18 -15 -22 -24 -14 -19 16 -16 26 10 31 12 2 23 5 24 6 0 0 -4
-10 -10 -23z m153 13 c0 -4 -6 -11 -13 -17 -9 -8 -16 -6 -24 7 -9 14 -7 17 13
17 13 0 24 -3 24 -7z m-310 -28 c0 -6 -4 -13 -10 -16 -5 -3 -10 1 -10 9 0 9 5
16 10 16 6 0 10 -4 10 -9z m499 -101 c16 0 39 9 52 19 22 18 25 18 42 3 9 -8
33 -16 52 -16 34 -1 35 -1 13 -17 -18 -14 -24 -15 -36 -3 -25 25 -60 27 -96 6
-28 -17 -37 -18 -46 -7 -6 7 -21 15 -34 17 -29 6 -86 -16 -86 -32 0 -6 -12 -2
-26 9 -15 12 -35 21 -45 21 -21 0 -25 15 -8 25 5 4 18 0 28 -9 24 -21 74 -20
101 2 23 18 24 18 42 0 10 -10 31 -18 47 -18z m231 32 c0 -15 51 -33 74 -26
21 6 21 6 1 -13 -20 -20 -21 -20 -44 -2 -13 11 -35 19 -48 19 -20 0 -22 2 -11
15 15 16 28 19 28 7z m150 -7 c7 -8 28 -15 47 -15 31 0 33 -1 19 -16 -14 -14
-18 -14 -38 0 -12 9 -35 16 -51 16 -24 0 -26 2 -15 15 17 18 23 18 38 0z
m-1028 -20 c16 -20 16 -21 -3 -22 -26 -2 -69 -30 -69 -44 0 -8 -5 -7 -15 1
-21 17 -19 25 6 27 26 2 59 31 59 51 0 9 1 13 3 11 1 -2 10 -13 19 -24z m214
-25 c22 0 24 -2 14 -15 -10 -12 -16 -11 -40 7 -18 13 -38 19 -53 16 -24 -5
-25 -4 -11 18 l15 22 24 -24 c13 -13 36 -24 51 -24z m141 8 c16 -2 20 -7 14
-17 -7 -11 -13 -11 -32 3 -13 9 -34 16 -47 16 -20 0 -21 2 -11 21 l11 21 21
-20 c12 -11 32 -22 44 -24z m-257 -14 c0 0 -8 -8 -18 -18 -18 -15 -20 -15 -35
1 -15 17 -13 18 19 18 19 0 34 0 34 -1z m29 -129 c30 -6 69 7 83 29 4 7 15 3
31 -12 13 -12 34 -22 46 -22 20 0 22 -2 11 -15 -12 -14 -15 -13 -35 5 -26 25
-66 26 -95 2 -22 -18 -24 -18 -58 -1 -19 10 -39 16 -43 13 -13 -8 -11 10 3 24
9 9 14 9 20 -2 5 -8 21 -17 37 -21z m309 0 c21 2 21 0 8 -13 -14 -14 -17 -14
-34 1 -10 9 -31 17 -47 17 -23 0 -26 2 -15 15 11 13 15 13 39 -4 14 -10 36
-17 49 -16z m140 2 c6 3 12 1 12 -4 0 -19 -13 -22 -34 -8 -11 8 -33 15 -49 15
-25 0 -28 2 -17 15 11 13 16 13 44 -4 17 -10 37 -16 44 -14z m92 18 c11 -13 8
-15 -21 -15 -31 0 -32 1 -13 15 10 8 20 15 20 15 1 0 7 -7 14 -15z m151 -1 c9
-8 26 -16 37 -17 15 -1 18 -5 11 -13 -7 -8 -19 -6 -49 8 -22 11 -37 24 -34 29
7 13 15 11 35 -7z m143 1 c11 -8 28 -15 38 -15 15 0 16 -3 7 -13 -10 -11 -19
-10 -47 5 -19 9 -40 14 -46 11 -6 -4 -5 1 3 10 16 20 20 21 45 2z m149 -4 c31
-16 35 -21 22 -31 -9 -7 -15 -8 -15 -2 0 13 -56 33 -66 24 -5 -4 -2 1 5 11 16
21 9 21 54 -2z m-1173 -6 c10 -13 9 -15 -8 -15 -15 0 -20 5 -16 15 4 8 7 15 9
15 1 0 8 -7 15 -15z m779 -14 c9 -6 10 -11 2 -15 -13 -8 -31 1 -31 15 0 11 11
11 29 0z m-711 -28 c-6 -7 -12 -13 -13 -13 -2 0 -5 6 -8 13 -3 7 3 13 14 13
13 0 15 -3 7 -13z m205 -123 c19 0 42 8 53 19 20 18 21 18 43 0 30 -25 72 -24
105 2 14 11 26 16 26 10 0 -6 -22 -22 -49 -36 -43 -21 -51 -22 -61 -10 -16 19
-70 19 -96 0 -19 -12 -24 -12 -40 0 -26 19 -69 19 -100 -2 -23 -15 -26 -15
-42 0 -15 15 -14 16 7 12 26 -5 62 10 74 31 6 11 12 9 27 -6 12 -12 34 -20 53
-20z m846 2 c3 -1 0 -7 -6 -13 -10 -10 -25 -4 -72 27 -1 2 0 7 3 13 5 8 37 -3
75 -27z m141 6 c9 3 7 -4 -7 -19 -21 -21 -23 -22 -41 -6 -10 9 -26 17 -35 17
-22 0 -22 9 0 25 15 11 22 10 43 -5 14 -9 32 -15 40 -12z m-1181 8 c9 -11 5
-15 -23 -18 -33 -4 -34 -3 -18 13 21 22 27 23 41 5z m190 -167 c-27 -17 -41
-9 -18 10 14 11 26 15 28 9 2 -6 -3 -14 -10 -19z m1010 -13 c-5 -6 -14 -3 -24
10 -22 29 -18 37 9 17 15 -11 21 -22 15 -27z m-1127 23 c2 -6 16 -12 31 -12
30 -2 33 -7 15 -25 -9 -9 -15 -8 -28 3 -9 8 -28 16 -43 17 -20 2 -23 5 -15 15
13 16 35 17 40 2z m10 -181 c-7 -7 -12 -8 -12 -2 0 6 3 14 7 17 3 4 9 5 12 2
2 -3 -1 -11 -7 -17z"/>
<path d="M1350 4820 c-11 -11 -21 -24 -21 -30 -1 -5 -2 -16 -3 -22 -4 -23 27
-67 50 -72 12 -3 33 -2 46 3 22 8 24 7 20 -18 -2 -17 4 -37 19 -55 19 -24 27
-28 61 -23 36 5 38 4 38 -24 0 -51 74 -91 107 -58 9 9 10 4 7 -18 -6 -41 27
-83 67 -83 41 0 81 41 75 76 -10 53 -66 85 -103 59 -17 -12 -18 -10 -15 25 5
49 -31 81 -84 74 -30 -4 -35 -2 -30 11 15 40 -43 90 -90 76 -29 -8 -30 -8 -26
24 7 60 -75 98 -118 55z"/>
<path d="M1202 4725 c-11 -14 -19 -33 -17 -43 2 -9 4 -23 4 -30 1 -17 63 -42
88 -36 17 5 20 0 20 -27 0 -44 35 -73 80 -66 30 5 33 3 33 -19 0 -40 36 -67
81 -61 37 5 39 4 35 -19 -6 -33 29 -74 63 -74 14 0 38 7 51 17 14 9 19 10 13
3 -20 -22 -15 -67 10 -90 16 -16 31 -21 58 -17 33 4 35 3 31 -22 -7 -52 59
-94 103 -66 20 12 20 11 17 -22 -8 -67 66 -107 118 -65 28 23 30 77 3 103 -21
21 -61 30 -83 18 -13 -6 -16 -1 -16 26 0 19 -8 43 -19 55 -20 22 -74 27 -92 9
-9 -9 -10 -7 -6 9 14 54 -36 110 -82 91 -32 -12 -36 -10 -31 16 7 36 -28 75
-68 75 -17 0 -36 -4 -42 -10 -7 -7 -9 1 -6 24 5 47 -27 79 -74 74 -30 -3 -34
-1 -34 18 0 40 -33 69 -79 68 -38 -1 -41 0 -41 26 0 59 -81 83 -118 35z"/>
<path d="M1736 4699 c-35 -27 -35 -71 0 -106 24 -24 43 -26 84 -9 13 5 15 -1
12 -31 -4 -46 23 -76 68 -76 41 0 70 28 70 70 0 59 -57 91 -111 62 -19 -10
-20 -9 -9 11 13 25 7 49 -21 78 -25 28 -59 28 -93 1z"/>
<path d="M1077 4648 c-24 -19 -36 -59 -25 -84 13 -28 52 -46 84 -38 21 5 24 3
24 -20 0 -40 35 -69 76 -63 32 5 34 4 34 -23 0 -37 44 -73 82 -68 22 4 28 0
33 -21 4 -14 14 -34 22 -43 18 -20 63 -24 79 -8 7 7 11 -1 11 -26 0 -44 30
-74 73 -74 23 0 30 -5 35 -30 9 -40 46 -64 85 -56 28 5 30 3 30 -24 0 -50 65
-83 110 -55 6 4 9 -3 6 -17 -11 -72 80 -113 127 -57 23 28 22 61 -5 94 -18 23
-26 26 -60 22 -37 -5 -38 -4 -38 24 0 44 -34 72 -80 66 -34 -4 -36 -3 -32 19
6 34 -40 77 -79 72 -25 -4 -29 -1 -29 18 0 40 -33 68 -79 68 -36 0 -41 2 -41
22 0 37 -39 67 -78 60 -18 -2 -30 -1 -27 3 8 14 -15 69 -33 77 -30 13 -53 14
-70 5 -15 -8 -17 -4 -19 22 -1 43 -37 70 -79 63 -29 -6 -31 -4 -31 21 0 49
-66 80 -106 51z"/>
<path d="M942 4544 c-59 -41 5 -146 69 -113 13 7 16 2 17 -24 1 -43 35 -71 78
-63 29 6 32 4 32 -20 0 -37 25 -58 70 -58 35 0 40 -3 40 -25 0 -45 58 -75 101
-52 15 9 17 6 13 -20 -8 -52 44 -89 90 -65 23 12 24 11 20 -16 -7 -43 32 -81
76 -74 29 4 32 2 32 -20 0 -39 36 -67 76 -61 32 5 34 4 30 -19 -9 -48 55 -91
105 -70 12 5 16 0 16 -25 0 -44 35 -73 79 -64 27 5 32 3 29 -12 -8 -53 50 -96
104 -77 54 19 53 106 -2 132 -23 11 -32 11 -58 -2 -19 -10 -27 -11 -21 -3 12
15 6 55 -10 75 -18 21 -50 30 -75 21 -20 -7 -23 -5 -23 15 0 38 -10 56 -41 71
-19 10 -35 12 -51 6 -21 -8 -23 -6 -25 22 -1 41 -37 71 -75 63 -23 -4 -28 -2
-28 13 0 50 -63 86 -109 62 -14 -8 -16 -5 -13 22 5 44 -25 71 -73 65 -32 -4
-35 -2 -35 22 0 33 -10 47 -43 59 -20 8 -34 8 -48 1 -17 -10 -19 -7 -19 20 0
44 -33 74 -76 67 -31 -5 -34 -3 -34 18 0 37 -38 68 -77 61 -30 -4 -33 -2 -33
21 0 30 -34 63 -64 63 -12 0 -32 -7 -44 -16z"/>
<path d="M1823 4452 c-30 -24 -39 -66 -19 -96 18 -28 66 -42 93 -28 16 9 18 6
15 -27 -6 -63 61 -100 111 -61 30 24 36 72 14 102 -17 22 -60 32 -84 20 -17
-9 -18 -6 -18 30 0 66 -62 100 -112 60z"/>
<path d="M817 4432 c-44 -49 -11 -119 52 -110 28 4 31 2 31 -24 0 -35 38 -62
79 -56 24 4 29 1 29 -19 0 -44 48 -78 88 -62 18 6 22 4 22 -18 0 -37 34 -67
76 -65 28 1 34 -2 31 -16 -7 -38 50 -77 90 -62 17 7 20 3 22 -23 2 -50 61 -78
106 -50 6 3 7 1 3 -5 -10 -16 20 -82 38 -83 9 -1 22 -2 29 -3 6 -1 20 2 29 6
15 7 17 5 14 -14 -8 -51 29 -84 84 -76 18 2 24 -3 27 -21 6 -42 33 -63 73 -59
32 3 36 1 32 -17 -2 -11 6 -33 18 -48 46 -58 141 -11 126 60 -8 34 -46 59 -82
55 -19 -3 -24 1 -24 20 0 31 -10 44 -44 62 -20 10 -36 12 -52 5 -21 -7 -24 -6
-24 16 0 33 -42 64 -80 58 -27 -4 -30 -1 -30 21 0 39 -35 69 -76 64 -30 -4
-34 -1 -34 19 0 37 -36 66 -76 61 -29 -3 -34 -1 -34 17 0 11 -7 31 -16 44 -13
19 -24 22 -55 19 -36 -3 -39 -2 -39 23 0 37 -32 62 -73 57 -31 -3 -34 -1 -34
19 0 39 -32 65 -74 61 -32 -3 -36 -1 -36 20 0 39 -32 64 -76 60 -28 -3 -36 0
-32 10 5 15 -12 53 -29 64 -20 14 -63 8 -79 -10z"/>
<path d="M703 4316 c-50 -43 -20 -117 46 -112 24 2 29 -2 29 -21 0 -47 56 -76
96 -49 21 13 22 13 18 -14 -2 -15 1 -37 7 -48 13 -25 66 -38 86 -22 13 10 15
8 15 -17 0 -46 45 -78 88 -62 13 5 21 5 18 0 -3 -5 -1 -23 5 -40 12 -33 42
-47 82 -38 19 5 22 2 23 -24 1 -37 30 -60 70 -56 26 2 30 0 28 -19 -5 -47 58
-80 105 -55 15 9 17 6 13 -20 -7 -45 23 -72 70 -66 31 4 36 2 33 -14 -6 -31
31 -67 73 -71 24 -2 37 -8 38 -18 2 -35 5 -40 32 -53 53 -26 102 5 102 64 0
38 -42 70 -81 62 -26 -5 -29 -3 -29 19 0 44 -54 76 -92 56 -15 -7 -18 -4 -18
14 0 54 -59 90 -99 61 -19 -13 -20 -12 -16 16 4 36 -26 68 -70 73 -20 2 -31 9
-33 23 -9 47 -70 73 -101 43 -10 -11 -11 -8 -6 12 13 53 -66 105 -102 69 -9
-9 -11 -4 -8 17 7 44 -18 69 -65 68 -33 -1 -40 2 -40 18 0 49 -45 77 -93 59
-21 -8 -23 -7 -20 13 7 33 -28 70 -67 70 -27 1 -34 5 -35 24 -3 47 -65 70
-102 38z"/>
<path d="M590 4190 c-47 -47 -6 -120 59 -107 24 5 28 3 24 -11 -6 -26 34 -72
63 -72 35 0 74 41 67 71 -10 43 -34 61 -73 56 -32 -4 -35 -2 -37 21 -1 29 -35
62 -64 62 -10 0 -28 -9 -39 -20z"/>
<path d="M2033 4110 c-48 -20 -58 -87 -17 -119 44 -35 82 -27 108 23 18 36 5
79 -30 95 -29 13 -31 13 -61 1z"/>
<path d="M499 4066 c-31 -15 -38 -69 -13 -97 19 -22 64 -25 83 -6 10 10 11 7
5 -16 -5 -22 -1 -34 17 -53 24 -26 49 -30 79 -14 16 8 18 8 14 -5 -19 -49 39
-97 89 -73 14 7 17 4 17 -21 0 -60 81 -80 114 -28 34 52 -16 112 -74 90 -23
-8 -27 -8 -23 2 5 15 -14 56 -31 67 -16 11 -60 10 -72 -2 -7 -7 -9 -1 -6 19 7
52 -60 93 -97 59 -11 -11 -13 -8 -9 13 9 52 -44 90 -93 65z"/>
<path d="M807 4032 c-21 -24 -22 -76 -1 -93 9 -7 31 -13 50 -13 28 0 34 -4 34
-20 1 -46 60 -76 100 -51 9 5 10 2 5 -14 -14 -45 56 -99 91 -70 11 9 14 7 14
-15 0 -39 35 -69 75 -64 29 3 33 1 33 -21 0 -26 34 -61 59 -61 8 0 22 4 32 10
15 8 17 6 13 -15 -7 -37 40 -78 78 -70 27 6 30 4 30 -18 0 -34 44 -69 76 -61
20 5 24 2 24 -18 0 -50 64 -78 105 -46 50 39 15 125 -46 116 -24 -4 -29 -1
-29 16 -1 49 -56 78 -98 52 -7 -4 -12 -4 -11 1 9 50 -27 94 -69 87 -14 -3 -28
-7 -32 -9 -3 -2 -7 11 -8 28 -3 40 -28 59 -69 55 -28 -3 -33 -1 -33 17 0 12
-10 32 -21 44 -17 18 -29 22 -55 18 -29 -5 -33 -3 -36 20 -5 39 -47 67 -81 54
-26 -10 -27 -9 -23 14 7 38 -24 69 -68 67 -21 -1 -34 3 -31 8 7 11 -12 51 -29
62 -20 14 -63 8 -79 -10z"/>
<path d="M1967 3931 c-23 -39 -21 -57 8 -86 63 -64 160 18 104 89 -30 38 -88
37 -112 -3z"/>
<path d="M397 3925 c-53 -39 0 -132 62 -109 26 10 28 9 25 -12 -5 -50 50 -85
92 -58 20 12 21 11 17 -6 -15 -58 37 -101 89 -74 33 17 41 49 22 87 -15 27
-19 29 -59 25 -41 -5 -43 -4 -39 18 7 36 -30 68 -70 61 -29 -5 -32 -2 -34 21
-4 51 -65 78 -105 47z"/>
<path d="M2113 3860 c-40 -16 -56 -77 -30 -112 16 -21 58 -32 86 -23 20 6 49
49 46 70 -3 30 -18 53 -41 63 -29 14 -31 14 -61 2z"/>
<path d="M340 3793 c-43 -15 -54 -82 -18 -107 30 -21 54 -20 78 4 28 28 25 64
-6 89 -28 22 -30 23 -54 14z"/>
<path d="M916 3749 c-30 -23 -33 -54 -10 -88 13 -19 24 -22 55 -19 35 3 39 1
39 -19 0 -29 33 -63 62 -63 12 0 31 8 42 18 13 11 17 12 10 2 -14 -18 -8 -60
10 -78 17 -17 47 -22 69 -10 14 7 17 4 17 -16 0 -39 38 -69 78 -61 24 4 33 3
31 -7 -6 -47 18 -78 60 -78 15 0 33 6 40 13 11 10 12 8 7 -10 -7 -22 8 -62 28
-75 20 -14 56 -8 76 12 45 45 7 117 -56 107 -31 -5 -33 -4 -36 26 -4 44 -45
65 -88 43 -28 -14 -29 -13 -20 5 14 25 2 67 -22 80 -11 6 -33 8 -49 5 -25 -5
-29 -3 -29 18 0 36 -33 60 -75 53 -19 -3 -33 -2 -30 3 10 16 -15 60 -40 72
-18 8 -32 8 -48 1 -22 -10 -23 -9 -19 17 3 20 -3 32 -23 49 -34 26 -46 26 -79
0z"/>
<path d="M428 3700 c-31 -24 -33 -61 -6 -90 34 -36 98 -10 98 39 0 56 -50 84
-92 51z"/>
<path d="M709 3677 c-20 -29 -10 -68 23 -86 55 -31 108 32 73 85 -21 32 -73
33 -96 1z"/>
<path d="M247 3629 c-46 -36 -25 -102 32 -102 41 0 61 19 61 58 0 54 -50 78
-93 44z"/>
<path d="M532 3624 c-42 -29 -14 -118 35 -109 10 2 21 4 25 4 16 2 38 34 38
57 0 28 -32 64 -58 64 -10 0 -28 -7 -40 -16z"/>
<path d="M825 3606 c-28 -28 -29 -34 -16 -69 14 -35 66 -46 92 -20 27 26 31
59 11 82 -29 33 -59 35 -87 7z"/>
<path d="M2360 3582 c-10 -1 -33 -53 -63 -140 -70 -199 -278 -793 -410 -1172
-41 -118 -100 -287 -131 -374 -31 -88 -56 -161 -56 -163 0 -2 89 -2 198 -1
l197 3 56 165 56 165 366 0 c357 0 366 0 375 -20 5 -11 30 -86 57 -167 l48
-146 199 -1 c109 0 198 1 198 3 0 3 -27 82 -61 178 -33 95 -64 184 -69 198 -4
14 -35 102 -68 195 -33 94 -142 404 -242 690 -100 286 -185 529 -190 540 -5
11 -10 27 -13 35 -3 12 -37 15 -218 15 -118 0 -221 -1 -229 -3z m343 -805
l123 -367 -248 0 c-136 0 -248 3 -248 7 0 16 242 734 246 730 2 -2 59 -169
127 -370z"/>
<path d="M351 3549 c-36 -34 -26 -80 21 -98 54 -20 103 53 62 93 -8 9 -18 16
-22 17 -4 0 -15 2 -24 4 -9 2 -26 -6 -37 -16z"/>
<path d="M636 3537 c-26 -26 -26 -67 0 -88 41 -34 111 9 99 60 -13 53 -61 66
-99 28z"/>
<path d="M932 3534 c-47 -33 -11 -118 46 -108 14 3 30 8 35 11 6 4 7 -4 4 -19
-9 -35 31 -79 64 -71 36 9 59 33 59 63 0 48 -53 75 -99 51 -15 -9 -17 -6 -13
20 8 57 -47 88 -96 53z"/>
<path d="M176 3474 c-25 -24 -24 -58 1 -86 22 -24 47 -23 78 5 24 20 25 25 15
52 -6 16 -17 33 -23 37 -20 13 -55 9 -71 -8z"/>
<path d="M473 3480 c-46 -19 -41 -92 7 -108 24 -9 34 -7 55 9 56 44 5 125 -62
99z"/>
<path d="M752 3473 c-7 -3 -17 -15 -22 -28 -27 -72 73 -124 110 -56 28 54 -28
108 -88 84z"/>
<path d="M287 3392 c-24 -26 -21 -68 5 -86 31 -22 54 -20 78 6 25 28 26 52 0
78 -25 25 -62 26 -83 2z"/>
<path d="M570 3390 c-40 -40 -14 -100 43 -100 57 0 74 84 22 108 -35 16 -42
15 -65 -8z"/>
<path d="M857 3388 c-9 -7 -19 -25 -22 -40 -13 -53 61 -91 98 -50 48 53 -19
133 -76 90z"/>
<path d="M1173 3392 c-44 -7 -64 -59 -38 -99 16 -23 57 -31 82 -15 16 10 34
59 27 76 -8 22 -46 42 -71 38z"/>
<path d="M120 3315 c-33 -40 7 -113 54 -99 35 11 46 25 46 60 0 23 -6 37 -19
44 -28 15 -67 12 -81 -5z"/>
<path d="M397 3312 c-23 -25 -21 -58 3 -82 23 -23 29 -24 63 -11 55 21 37 111
-22 111 -15 0 -35 -8 -44 -18z"/>
<path d="M682 3314 c-47 -33 -14 -109 45 -102 54 6 66 84 17 107 -32 14 -35
14 -62 -5z"/>
<path d="M955 3296 c-28 -42 0 -96 49 -96 24 0 56 37 56 63 0 54 -76 78 -105
33z"/>
<path d="M1253 3302 c-7 -4 -15 -22 -19 -39 -7 -35 22 -73 56 -73 27 0 60 35
60 63 0 43 -59 73 -97 49z"/>
<path d="M236 3234 c-31 -31 -14 -85 31 -99 17 -4 29 1 47 19 26 25 28 55 5
82 -15 19 -64 18 -83 -2z"/>
<path d="M510 3230 c-26 -26 -25 -50 0 -78 26 -27 54 -28 80 -2 24 24 25 48 4
78 -19 28 -57 29 -84 2z"/>
<path d="M792 3234 c-45 -31 -17 -104 40 -104 49 0 74 65 37 99 -27 25 -47 26
-77 5z"/>
<path d="M1066 3224 c-34 -33 -4 -104 44 -104 27 0 60 35 60 63 0 49 -70 76
-104 41z"/>
<path d="M1370 3227 c-37 -18 -41 -80 -7 -102 30 -19 73 -11 87 15 31 59 -22
116 -80 87z"/>
<path d="M74 3145 c-20 -31 -15 -53 18 -78 25 -19 28 -19 52 -4 33 22 41 52
22 82 -22 34 -70 34 -92 0z"/>
<path d="M344 3145 c-23 -35 -12 -70 27 -84 43 -15 79 11 79 55 0 52 -77 73
-106 29z"/>
<path d="M633 3162 c-21 -13 -31 -55 -20 -80 23 -51 107 -30 107 27 0 46 -50
76 -87 53z"/>
<path d="M896 3148 c-21 -30 -20 -61 2 -81 48 -44 117 3 92 62 -10 26 -34 40
-67 41 -6 0 -19 -10 -27 -22z"/>
<path d="M1180 3148 c-56 -52 13 -135 73 -87 30 23 34 45 12 76 -20 29 -60 34
-85 11z"/>
<path d="M196 3074 c-35 -34 -6 -104 42 -104 25 0 61 46 55 71 -11 47 -66 65
-97 33z"/>
<path d="M466 3074 c-36 -35 -6 -104 45 -104 26 0 58 46 51 73 -11 44 -66 62
-96 31z"/>
<path d="M737 3072 c-24 -26 -21 -68 5 -86 30 -21 51 -20 72 3 25 27 27 56 5
80 -24 26 -60 27 -82 3z"/>
<path d="M1010 3070 c-39 -39 -14 -100 42 -100 53 0 79 74 36 104 -30 21 -54
20 -78 -4z"/>
<path d="M1315 3082 c-33 -7 -45 -23 -45 -58 0 -64 71 -82 107 -28 27 42 -12
97 -62 86z"/>
<path d="M50 2990 c-25 -25 -26 -55 0 -77 27 -24 55 -25 74 -4 25 27 27 56 5
80 -25 26 -53 27 -79 1z"/>
<path d="M316 2994 c-25 -25 -20 -71 10 -91 24 -15 29 -15 53 -2 16 9 27 25
29 43 6 53 -55 87 -92 50z"/>
<path d="M588 2998 c-34 -27 -23 -92 18 -102 54 -14 91 41 60 89 -18 27 -52
33 -78 13z"/>
<path d="M853 2990 c-9 -10 -18 -28 -20 -38 -3 -24 32 -62 57 -62 26 0 60 34
60 60 0 26 -34 60 -60 60 -11 0 -28 -9 -37 -20z"/>
<path d="M1143 3003 c-38 -7 -48 -75 -15 -100 37 -29 92 -2 92 45 0 22 -33 63
-47 61 -5 -1 -18 -4 -30 -6z"/>
<path d="M450 2927 c-47 -24 -43 -99 5 -117 34 -13 63 2 71 37 15 58 -29 103
-76 80z"/>
<path d="M190 2923 c-41 -15 -51 -62 -20 -93 53 -53 131 23 80 78 -21 22 -32
25 -60 15z"/>
<path d="M720 2923 c-41 -15 -51 -62 -20 -93 27 -27 65 -26 84 2 21 30 20 54
-4 78 -20 20 -33 23 -60 13z"/>
<path d="M990 2923 c-40 -14 -53 -69 -22 -96 36 -33 88 -14 97 35 4 20 -1 31
-21 47 -28 22 -30 23 -54 14z"/>
<path d="M1253 2919 c-42 -15 -42 -77 0 -103 22 -14 68 3 78 30 16 45 -32 90
-78 73z"/>
<path d="M44 2837 c-39 -21 -46 -63 -16 -90 36 -33 95 -9 95 37 0 46 -42 74
-79 53z"/>
<path d="M312 2839 c-25 -9 -45 -50 -36 -74 16 -40 76 -46 100 -10 31 48 -11
104 -64 84z"/>
<path d="M569 2836 c-48 -23 -28 -106 26 -106 29 0 55 30 55 62 0 41 -42 64
-81 44z"/>
<path d="M830 2832 c-29 -24 -33 -59 -10 -82 27 -27 65 -25 84 2 21 30 20 51
-4 73 -28 25 -46 27 -70 7z"/>
<path d="M1115 2842 c-32 -7 -45 -22 -45 -53 0 -51 61 -79 96 -44 36 35 -3
108 -51 97z"/>
<path d="M151 2746 c-22 -27 -21 -57 4 -82 25 -25 45 -24 78 4 21 19 22 41 1
70 -17 25 -65 30 -83 8z"/>
<path d="M416 2744 c-18 -18 -20 -47 -6 -75 7 -13 21 -19 45 -19 37 0 55 20
55 61 0 43 -63 65 -94 33z"/>
<path d="M676 2745 c-17 -17 -21 -52 -8 -71 39 -59 131 -11 100 54 -16 33 -66
42 -92 17z"/>
<path d="M940 2745 c-34 -41 -8 -97 46 -97 28 0 40 12 50 50 13 47 -64 85 -96
47z"/>
<path d="M1206 2744 c-35 -35 -12 -94 37 -94 40 0 57 15 57 51 0 34 -24 59
-55 59 -13 0 -31 -7 -39 -16z"/>
<path d="M17 2662 c-50 -55 23 -128 79 -81 20 16 17 63 -4 82 -24 22 -55 21
-75 -1z"/>
<path d="M279 2659 c-15 -15 -19 -28 -14 -47 3 -15 9 -30 13 -33 36 -34 104 1
96 49 -9 51 -58 68 -95 31z"/>
<path d="M552 2673 c-39 -15 -31 -96 10 -106 22 -6 68 8 69 20 0 5 2 18 5 31
7 40 -41 72 -84 55z"/>
<path d="M802 2655 c-24 -30 -19 -60 14 -81 53 -35 111 39 68 87 -24 26 -59
24 -82 -6z"/>
<path d="M1072 2664 c-27 -19 -29 -57 -2 -84 49 -49 126 28 78 80 -23 24 -46
25 -76 4z"/>
<path d="M151 2581 c-27 -27 -27 -66 1 -85 30 -21 47 -20 73 4 15 14 21 29 17
45 -8 47 -60 67 -91 36z"/>
<path d="M423 2589 c-40 -15 -41 -78 -1 -100 50 -27 105 29 74 76 -17 26 -44
35 -73 24z"/>
<path d="M671 2574 c-23 -29 -21 -60 7 -81 34 -27 79 -7 87 39 5 25 -15 58
-35 58 -5 0 -15 3 -23 6 -9 3 -23 -6 -36 -22z"/>
<path d="M946 2588 c-43 -24 -34 -93 12 -105 46 -11 82 29 67 73 -11 31 -52
47 -79 32z"/>
<path d="M1201 2584 c-42 -30 -14 -104 40 -104 23 0 49 33 49 62 0 45 -51 68
-89 42z"/>
<path d="M40 2508 c-29 -11 -40 -25 -40 -54 0 -47 78 -75 100 -35 28 53 -9
108 -60 89z"/>
<path d="M277 2492 c-21 -23 -21 -41 -1 -70 39 -57 127 6 90 64 -20 29 -65 32
-89 6z"/>
<path d="M535 2487 c-21 -33 -6 -74 31 -83 51 -13 88 30 64 74 -22 38 -72 43
-95 9z"/>
<path d="M802 2498 c-17 -17 -15 -64 4 -82 33 -34 94 -7 94 42 0 43 -67 71
-98 40z"/>
<path d="M1066 2494 c-32 -32 -7 -94 38 -94 49 0 71 44 46 91 -13 23 -62 26
-84 3z"/>
<path d="M147 2412 c-21 -23 -22 -65 -2 -82 37 -31 95 -7 95 40 0 54 -59 80
-93 42z"/>
<path d="M416 2414 c-35 -34 -10 -96 39 -96 33 0 55 25 55 64 0 44 -61 65 -94
32z"/>
<path d="M676 2408 c-21 -30 -20 -47 4 -73 37 -40 105 -4 93 48 -12 48 -71 63
-97 25z"/>
<path d="M948 2418 c-40 -33 -20 -98 31 -98 29 0 61 27 61 51 0 46 -57 74 -92
47z"/>
<path d="M1207 2412 c-43 -47 8 -116 64 -89 31 16 39 72 12 93 -25 19 -57 17
-76 -4z"/>
<path d="M30 2330 c-26 -26 -25 -55 1 -81 20 -20 48 -19 77 3 18 15 15 63 -6
81 -25 22 -48 21 -72 -3z"/>
<path d="M310 2342 c-21 -7 -38 -33 -35 -51 2 -9 4 -19 4 -23 2 -14 33 -38 51
-38 24 0 60 38 60 62 0 33 -46 62 -80 50z"/>
<path d="M562 2334 c-31 -21 -30 -69 2 -90 58 -37 121 51 64 90 -28 20 -38 20
-66 0z"/>
<path d="M842 2339 c-28 -11 -43 -47 -29 -76 11 -25 27 -33 53 -28 11 2 22 4
26 4 15 2 28 41 22 65 -7 29 -41 46 -72 35z"/>
<path d="M1103 2339 c-24 -9 -39 -48 -29 -74 3 -8 17 -20 30 -27 20 -9 30 -8
51 6 57 37 13 119 -52 95z"/>
<path d="M187 2258 c-49 -17 -45 -91 7 -104 50 -12 84 32 63 83 -11 26 -33 33
-70 21z"/>
<path d="M449 2256 c-42 -21 -38 -89 7 -100 37 -10 74 17 74 53 0 44 -41 68
-81 47z"/>
<path d="M707 2252 c-7 -9 -17 -22 -21 -29 -9 -16 14 -62 34 -68 19 -6 69 10
71 22 7 38 4 55 -11 68 -25 23 -56 26 -73 7z"/>
<path d="M971 2251 c-28 -28 -27 -67 3 -86 48 -32 104 22 76 74 -6 12 -15 21
-20 21 -4 0 -15 3 -23 6 -9 3 -25 -4 -36 -15z"/>
<path d="M1237 2252 c-46 -51 13 -124 69 -87 27 17 33 72 12 93 -18 18 -63 14
-81 -6z"/>
<path d="M592 2175 c-42 -30 -30 -87 20 -100 44 -11 84 44 60 82 -15 23 -58
33 -80 18z"/>
<path d="M870 2177 c-35 -18 -44 -63 -17 -87 49 -46 125 18 84 71 -18 23 -41
29 -67 16z"/>
<path d="M1131 2171 c-33 -33 -27 -67 17 -90 33 -18 72 9 72 48 0 49 -56 75
-89 42z"/>
<path d="M46 2164 c-47 -46 24 -123 76 -81 41 32 20 97 -32 97 -16 0 -36 -7
-44 -16z"/>
<path d="M310 2161 c-15 -29 -12 -56 8 -74 52 -47 126 28 76 77 -22 23 -71 20
-84 -3z"/>
<path d="M1309 2103 c-20 -5 -40 -48 -33 -68 7 -18 36 -35 58 -35 22 0 46 28
46 55 0 21 -34 57 -50 54 -3 -1 -12 -3 -21 -6z"/>
<path d="M193 2074 c-15 -24 -15 -29 -2 -53 29 -52 99 -35 99 24 0 57 -66 76
-97 29z"/>
<path d="M466 2084 c-21 -21 -20 -57 2 -77 24 -22 55 -21 75 1 34 37 11 92
-38 92 -13 0 -31 -7 -39 -16z"/>
<path d="M753 2089 c-42 -16 -38 -80 7 -94 29 -9 70 20 70 49 0 37 -39 59 -77
45z"/>
<path d="M1011 2086 c-35 -41 19 -111 63 -83 29 20 37 51 20 76 -18 24 -65 28
-83 7z"/>
<path d="M3761 2061 c-10 -6 -10 -10 -1 -16 13 -8 24 -1 19 14 -3 6 -10 7 -18
2z"/>
<path d="M3895 2050 c3 -5 10 -10 16 -10 5 0 9 5 9 10 0 6 -7 10 -16 10 -8 0
-12 -4 -9 -10z"/>
<path d="M1192 2014 c-43 -30 -21 -94 33 -94 42 0 60 63 27 93 -23 21 -32 21
-60 1z"/>
<path d="M86 2007 c-21 -16 -24 -60 -6 -82 16 -19 64 -20 79 -1 21 25 21 56 1
76 -23 23 -49 25 -74 7z"/>
<path d="M356 2007 c-21 -16 -24 -60 -6 -82 16 -19 64 -20 79 -1 21 25 21 56
1 76 -23 23 -49 25 -74 7z"/>
<path d="M626 2004 c-22 -21 -20 -57 4 -79 46 -41 116 29 75 75 -22 24 -58 26
-79 4z"/>
<path d="M897 2000 c-32 -46 14 -101 64 -76 27 13 37 59 18 82 -17 21 -65 18
-82 -6z"/>
<path d="M1365 1940 c-43 -47 18 -118 65 -75 22 20 26 57 8 72 -26 20 -57 21
-73 3z"/>
<path d="M1076 1934 c-32 -32 -10 -94 34 -94 26 0 50 27 50 55 0 28 -24 55
-50 55 -10 0 -26 -7 -34 -16z"/>
<path d="M233 1914 c-15 -24 -15 -29 -2 -53 28 -49 99 -32 99 24 0 55 -67 75
-97 29z"/>
<path d="M518 1929 c-12 -6 -18 -22 -18 -43 0 -64 90 -74 102 -12 10 51 -38
82 -84 55z"/>
<path d="M792 1928 c-23 -29 -18 -75 11 -84 43 -15 77 8 77 53 0 36 -64 59
-88 31z"/>
<path d="M3680 1906 c0 -14 24 -29 33 -19 3 3 3 11 0 19 -7 18 -33 18 -33 0z"/>
<path d="M3830 1894 c0 -9 5 -14 12 -12 18 6 21 28 4 28 -9 0 -16 -7 -16 -16z"/>
<path d="M3976 1902 c-3 -6 -1 -14 5 -17 15 -10 25 3 12 16 -7 7 -13 7 -17 1z"/>
<path d="M4116 1902 c-3 -6 -1 -14 5 -17 15 -10 25 3 12 16 -7 7 -13 7 -17 1z"/>
<path d="M4256 1885 c4 -8 10 -12 15 -9 14 8 10 24 -6 24 -9 0 -12 -6 -9 -15z"/>
<path d="M4670 1891 c0 -6 5 -13 10 -16 6 -3 10 1 10 9 0 9 -4 16 -10 16 -5 0
-10 -4 -10 -9z"/>
<path d="M4810 1886 c0 -9 5 -16 10 -16 6 0 10 4 10 9 0 6 -4 13 -10 16 -5 3
-10 -1 -10 -9z"/>
<path d="M4945 1880 c4 -6 11 -8 16 -5 14 9 11 15 -7 15 -8 0 -12 -5 -9 -10z"/>
<path d="M1268 1866 c-31 -15 -35 -56 -8 -81 17 -15 24 -16 45 -7 30 14 39 33
31 66 -7 28 -36 38 -68 22z"/>
<path d="M970 1850 c-11 -11 -20 -27 -20 -35 0 -8 9 -24 20 -35 25 -25 45 -25
70 0 22 22 22 49 1 74 -18 22 -47 20 -71 -4z"/>
<path d="M132 1844 c-41 -29 -19 -94 33 -94 24 0 55 33 55 57 0 17 -36 53 -53
53 -7 0 -23 -7 -35 -16z"/>
<path d="M408 1848 c-9 -7 -18 -20 -19 -28 -9 -51 46 -87 82 -54 50 45 -10
123 -63 82z"/>
<path d="M676 1839 c-27 -40 8 -88 57 -75 31 8 43 40 26 72 -16 31 -62 33 -83
3z"/>
<path d="M1458 1799 c-22 -12 -23 -47 -3 -69 22 -25 64 -14 72 18 11 46 -29
76 -69 51z"/>
<path d="M1166 1791 c-45 -18 -34 -91 14 -91 14 0 31 5 38 12 17 17 15 54 -4
72 -17 18 -20 18 -48 7z"/>
<path d="M856 1774 c-20 -19 -21 -58 -2 -73 55 -45 120 20 75 75 -15 19 -54
18 -73 -2z"/>
<path d="M291 1766 c-31 -37 -6 -96 40 -96 40 0 66 69 37 98 -16 16 -63 15
-77 -2z"/>
<path d="M573 1768 c-21 -27 -21 -47 -2 -72 43 -55 112 2 79 65 -12 22 -62 26
-77 7z"/>
<path d="M3592 1763 c2 -10 10 -18 18 -18 8 0 16 8 18 18 2 12 -3 17 -18 17
-15 0 -20 -5 -18 -17z"/>
<path d="M3746 1761 c-7 -11 18 -33 27 -24 4 3 7 12 7 20 0 15 -26 18 -34 4z"/>
<path d="M3901 1760 c-16 -9 -6 -30 15 -30 15 0 20 25 6 34 -4 2 -14 1 -21 -4z"/>
<path d="M4044 1749 c-8 -14 11 -33 25 -25 11 7 4 36 -9 36 -5 0 -12 -5 -16
-11z"/>
<path d="M4190 1734 c0 -9 5 -14 12 -12 18 6 21 28 4 28 -9 0 -16 -7 -16 -16z"/>
<path d="M4337 1744 c-8 -8 1 -24 14 -24 5 0 9 7 9 15 0 15 -12 20 -23 9z"/>
<path d="M4476 1725 c4 -8 10 -12 15 -9 14 8 10 24 -6 24 -9 0 -12 -6 -9 -15z"/>
<path d="M4616 1725 c4 -8 10 -12 15 -9 14 8 10 24 -6 24 -9 0 -12 -6 -9 -15z"/>
<path d="M4755 1730 c-3 -5 1 -10 9 -10 9 0 16 5 16 10 0 6 -4 10 -9 10 -6 0
-13 -4 -16 -10z"/>
<path d="M4896 1732 c-3 -6 -1 -14 5 -17 15 -10 25 3 12 16 -7 7 -13 7 -17 1z"/>
<path d="M1339 1709 c-8 -16 -8 -28 0 -45 15 -34 67 -34 82 0 16 35 -3 66 -41
66 -20 0 -33 -7 -41 -21z"/>
<path d="M1045 1704 c-25 -25 -15 -67 19 -79 24 -8 31 -6 47 14 24 29 24 36
-1 61 -24 24 -43 25 -65 4z"/>
<path d="M747 1689 c-15 -21 -16 -31 -2 -61 11 -28 61 -23 81 7 15 23 15 27 0
50 -20 31 -59 33 -79 4z"/>
<path d="M181 1681 c-44 -44 23 -117 70 -75 24 22 25 56 1 77 -24 22 -48 21
-71 -2z"/>
<path d="M461 1686 c-16 -19 -10 -66 10 -79 26 -16 68 0 75 30 4 14 2 33 -3
42 -13 21 -66 26 -82 7z"/>
<path d="M1562 1668 c-26 -26 -7 -78 29 -78 37 0 56 63 25 82 -17 11 -41 9
-54 -4z"/>
<path d="M1248 1648 c-24 -20 -28 -44 -12 -67 17 -23 53 -28 72 -9 7 7 12 25
12 40 0 21 -6 31 -26 38 -31 12 -27 12 -46 -2z"/>
<path d="M3484 1645 c-4 -9 -2 -21 4 -27 15 -15 44 -1 40 19 -4 23 -36 29 -44
8z"/>
<path d="M930 1621 c-14 -27 -13 -47 6 -65 42 -42 101 4 76 59 -15 32 -66 35
-82 6z"/>
<path d="M3646 1625 c-3 -9 1 -18 10 -22 19 -7 39 11 30 26 -10 16 -33 13 -40
-4z"/>
<path d="M373 1620 c-48 -19 -47 -84 1 -96 39 -9 68 12 64 48 -4 37 -34 60
-65 48z"/>
<path d="M643 1618 c-29 -38 -12 -88 30 -88 29 0 43 10 52 38 13 44 -55 85
-82 50z"/>
<path d="M3805 1621 c-8 -15 3 -31 21 -31 9 0 14 7 12 17 -4 20 -24 28 -33 14z"/>
<path d="M3966 1613 c-11 -12 -6 -33 8 -33 19 0 28 27 11 33 -7 3 -16 3 -19 0z"/>
<path d="M4110 1596 c0 -21 21 -31 30 -15 5 7 6 17 4 21 -9 14 -34 9 -34 -6z"/>
<path d="M4264 1596 c-4 -10 -2 -22 4 -28 8 -8 13 -7 18 6 4 10 2 22 -4 28 -8
8 -13 7 -18 -6z"/>
<path d="M1447 1585 c-16 -15 -16 -26 -2 -57 11 -28 61 -23 81 7 16 24 16 27
-1 45 -21 24 -58 26 -78 5z"/>
<path d="M4406 1585 c-5 -14 17 -28 28 -18 10 10 7 21 -8 26 -8 3 -17 0 -20
-8z"/>
<path d="M4550 1575 c0 -8 7 -15 15 -15 8 0 15 7 15 15 0 8 -7 15 -15 15 -8 0
-15 -7 -15 -15z"/>
<path d="M4695 1580 c-4 -6 -3 -16 3 -22 6 -6 12 -6 17 2 4 6 3 16 -3 22 -6 6
-12 6 -17 -2z"/>
<path d="M4840 1576 c0 -9 5 -16 10 -16 6 0 10 4 10 9 0 6 -4 13 -10 16 -5 3
-10 -1 -10 -9z"/>
<path d="M1136 1564 c-22 -21 -20 -61 3 -74 31 -16 49 -12 67 15 15 23 15 27
0 50 -19 29 -47 32 -70 9z"/>
<path d="M834 1552 c-11 -7 -18 -32 -15 -59 2 -22 41 -36 67 -24 27 12 33 58
12 79 -13 13 -47 16 -64 4z"/>
<path d="M1681 1546 c-16 -19 -11 -46 12 -60 25 -16 52 4 52 40 0 24 -5 30
-26 32 -14 2 -31 -4 -38 -12z"/>
<path d="M252 1535 c-26 -19 -29 -57 -6 -79 21 -22 50 -20 74 4 16 16 18 24 9
50 -6 16 -15 30 -19 30 -5 0 -14 2 -22 5 -7 3 -23 -2 -36 -10z"/>
<path d="M532 1538 c-28 -28 -2 -88 38 -88 40 0 66 60 38 88 -7 7 -24 12 -38
12 -14 0 -31 -5 -38 -12z"/>
<path d="M3367 1544 c-12 -12 -8 -42 6 -47 21 -8 39 8 35 29 -3 19 -29 30 -41
18z"/>
<path d="M1350 1510 c-25 -25 -25 -42 0 -65 39 -35 92 17 62 61 -15 22 -42 24
-62 4z"/>
<path d="M3534 1505 c-4 -9 -2 -21 3 -26 14 -14 45 1 41 20 -4 22 -37 26 -44
6z"/>
<path d="M3706 1503 c-3 -4 -6 -15 -6 -25 0 -24 33 -21 38 3 3 17 -21 33 -32
22z"/>
<path d="M1026 1485 c-20 -20 -21 -49 -2 -64 43 -36 98 -3 80 47 -11 32 -53
41 -78 17z"/>
<path d="M726 1471 c-23 -26 -20 -58 8 -76 31 -20 63 -6 72 31 12 46 -49 79
-80 45z"/>
<path d="M1572 1478 c-7 -7 -12 -22 -12 -34 0 -50 68 -60 81 -11 12 44 -37 77
-69 45z"/>
<path d="M443 1470 c-50 -20 -31 -101 23 -95 31 3 45 21 42 54 -4 31 -36 52
-65 41z"/>
<path d="M3856 1471 c-8 -12 21 -34 34 -26 17 11 11 35 -9 35 -11 0 -22 -4
-25 -9z"/>
<path d="M4022 1453 c4 -21 33 -25 33 -3 0 8 -8 16 -18 18 -14 3 -18 -1 -15
-15z"/>
<path d="M4181 1461 c-14 -9 -9 -41 8 -41 13 0 23 32 14 41 -5 5 -14 4 -22 0z"/>
<path d="M1814 1446 c-12 -31 0 -51 31 -51 27 0 30 3 30 30 0 25 -4 30 -28 33
-17 2 -29 -2 -33 -12z"/>
<path d="M1253 1439 c-29 -10 -32 -63 -5 -77 38 -21 82 20 62 58 -13 23 -30
29 -57 19z"/>
<path d="M3227 1437 c-8 -21 8 -39 29 -35 27 5 25 42 -2 46 -12 2 -24 -3 -27
-11z"/>
<path d="M4320 1434 c0 -9 7 -14 17 -12 25 5 28 28 4 28 -12 0 -21 -6 -21 -16z"/>
<path d="M4475 1440 c-10 -17 12 -37 25 -24 8 8 6 15 -4 23 -10 9 -16 9 -21 1z"/>
<path d="M4620 1426 c0 -8 4 -17 9 -20 11 -7 33 18 24 27 -12 12 -33 7 -33 -7z"/>
<path d="M4766 1421 c-3 -5 0 -11 8 -14 8 -3 17 1 20 9 6 15 -19 20 -28 5z"/>
<path d="M914 1393 c-8 -32 6 -57 35 -61 30 -5 51 15 51 48 0 29 -15 40 -56
40 -17 0 -25 -7 -30 -27z"/>
<path d="M3417 1407 c-16 -11 -16 -14 -3 -32 14 -19 16 -19 33 -2 15 15 16 19
2 32 -12 13 -18 13 -32 2z"/>
<path d="M621 1391 c-25 -25 -26 -44 -5 -65 32 -33 84 -10 84 36 -1 40 -50 58
-79 29z"/>
<path d="M1471 1394 c-37 -26 -21 -74 26 -74 29 0 48 33 34 59 -15 27 -35 32
-60 15z"/>
<path d="M340 1393 c-43 -15 -45 -78 -3 -94 24 -9 62 2 64 19 0 4 2 15 4 25 2
10 -5 27 -16 38 -20 20 -24 21 -49 12z"/>
<path d="M3580 1370 c-8 -15 -6 -21 9 -29 26 -14 50 12 31 34 -17 20 -27 19
-40 -5z"/>
<path d="M1701 1358 c-16 -43 19 -73 57 -49 8 5 12 21 10 37 -2 23 -9 30 -31
32 -21 3 -29 -2 -36 -20z"/>
<path d="M1960 1359 c-9 -15 -8 -24 1 -35 17 -21 49 -17 58 9 17 43 -37 67
-59 26z"/>
<path d="M3098 1373 c-22 -5 -24 -48 -4 -56 8 -3 22 0 31 7 14 10 15 16 6 34
-6 12 -13 21 -14 21 -1 -1 -10 -3 -19 -6z"/>
<path d="M1138 1359 c-11 -6 -18 -22 -18 -39 0 -22 6 -30 29 -38 24 -8 32 -7
45 7 22 24 20 58 -3 71 -24 12 -31 12 -53 -1z"/>
<path d="M3750 1355 c-8 -10 -7 -17 5 -29 19 -19 35 -13 35 14 0 23 -25 33
-40 15z"/>
<path d="M821 1333 c-44 -30 -7 -102 42 -84 32 12 43 35 30 64 -14 30 -45 39
-72 20z"/>
<path d="M3923 1343 c-15 -5 -17 -29 -4 -37 4 -3 16 0 25 7 15 11 15 15 4 24
-7 6 -19 8 -25 6z"/>
<path d="M510 1310 c-24 -24 -24 -29 -4 -58 19 -28 58 -28 78 -1 16 23 12 47
-12 67 -22 17 -39 15 -62 -8z"/>
<path d="M1372 1323 c-7 -3 -17 -13 -22 -24 -23 -43 39 -82 70 -44 26 31 -9
81 -48 68z"/>
<path d="M4073 1314 c-7 -18 17 -38 31 -24 11 11 1 40 -14 40 -6 0 -13 -7 -17
-16z"/>
<path d="M2122 1308 c-30 -30 1 -73 36 -51 23 14 25 29 7 47 -20 19 -27 20
-43 4z"/>
<path d="M2936 1304 c-18 -18 -6 -54 19 -54 25 0 37 36 19 54 -8 9 -17 16 -19
16 -2 0 -11 -7 -19 -16z"/>
<path d="M3272 1298 c2 -15 10 -23 23 -23 30 0 27 39 -3 43 -20 3 -23 0 -20
-20z"/>
<path d="M4230 1297 c0 -21 12 -28 27 -16 19 16 16 29 -7 29 -11 0 -20 -6 -20
-13z"/>
<path d="M4387 1304 c-14 -15 -6 -34 14 -34 14 0 19 5 17 17 -3 18 -20 27 -31
17z"/>
<path d="M1588 1274 c-11 -23 -10 -29 11 -45 21 -17 26 -18 45 -6 12 8 21 21
20 28 -3 53 -56 69 -76 23z"/>
<path d="M4541 1290 c-19 -11 -6 -41 14 -34 16 6 20 29 7 38 -4 2 -14 1 -21
-4z"/>
<path d="M1026 1274 c-9 -8 -16 -22 -16 -29 0 -7 7 -21 16 -29 30 -30 74 -13
74 29 0 42 -44 59 -74 29z"/>
<path d="M1844 1276 c-11 -29 1 -51 28 -54 22 -3 29 2 34 22 3 14 3 30 -1 35
-9 16 -55 13 -61 -3z"/>
<path d="M3455 1273 c-15 -14 -15 -18 -1 -31 18 -19 46 -9 46 17 0 26 -26 34
-45 14z"/>
<path d="M4684 1279 c-8 -14 11 -33 25 -25 16 10 13 36 -3 36 -8 0 -18 -5 -22
-11z"/>
<path d="M2280 1265 c-17 -21 -8 -50 17 -53 23 -3 47 26 35 44 -12 19 -40 23
-52 9z"/>
<path d="M711 1251 c-12 -12 -17 -27 -14 -40 6 -25 49 -38 72 -24 23 15 26 52
4 68 -25 19 -40 18 -62 -4z"/>
<path d="M2766 1254 c-10 -26 19 -52 42 -38 9 6 17 20 17 30 0 26 -50 32 -59
8z"/>
<path d="M401 1236 c-22 -26 -9 -70 23 -81 24 -8 31 -6 47 14 23 28 24 45 3
65 -19 20 -58 21 -73 2z"/>
<path d="M1259 1243 c-40 -10 -27 -83 14 -83 46 0 66 59 28 80 -11 5 -21 9
-23 9 -2 -1 -10 -3 -19 -6z"/>
<path d="M2436 1234 c-8 -20 11 -44 34 -44 20 0 32 23 24 45 -8 20 -50 19 -58
-1z"/>
<path d="M2604 1236 c-10 -26 4 -48 28 -44 17 2 23 10 23 28 0 18 -6 26 -23
28 -13 2 -25 -3 -28 -12z"/>
<path d="M3132 1241 c-20 -12 -10 -46 14 -49 25 -4 40 24 23 44 -13 16 -19 17
-37 5z"/>
<path d="M3626 1241 c-9 -13 4 -41 18 -41 18 0 35 21 29 36 -6 16 -39 19 -47
5z"/>
<path d="M3801 1216 c-16 -19 -6 -36 20 -36 15 0 20 6 17 22 -4 27 -21 33 -37
14z"/>
<path d="M934 1210 c-51 -19 -24 -100 29 -86 30 7 43 37 28 64 -13 25 -31 31
-57 22z"/>
<path d="M1486 1204 c-20 -20 -20 -38 -1 -58 34 -34 85 22 55 60 -16 18 -35
18 -54 -2z"/>
<path d="M1735 1203 c-28 -28 -9 -83 30 -83 24 0 35 17 35 55 0 38 -39 54 -65
28z"/>
<path d="M1994 1194 c-7 -29 6 -47 31 -42 28 5 41 33 26 52 -21 25 -50 20 -57
-10z"/>
<path d="M3964 1195 c-7 -18 3 -35 21 -35 21 0 28 19 15 35 -16 19 -29 19 -36
0z"/>
<path d="M3321 1190 c-7 -4 -11 -16 -9 -26 4 -22 37 -31 48 -13 16 25 -14 55
-39 39z"/>
<path d="M602 1178 c-37 -37 10 -104 57 -79 11 7 22 16 22 21 1 6 2 16 3 23 6
35 -55 62 -82 35z"/>
<path d="M2972 1173 c-13 -26 -4 -43 23 -43 14 0 25 7 28 19 9 36 -34 56 -51
24z"/>
<path d="M4124 1179 c-3 -6 0 -17 8 -25 13 -13 16 -13 27 0 7 8 10 20 6 26 -8
13 -32 13 -41 -1z"/>
<path d="M4292 1171 c-15 -9 -5 -41 13 -41 18 0 26 27 12 39 -7 5 -18 6 -25 2z"/>
<path d="M1148 1159 c-23 -13 -24 -65 -2 -73 61 -23 101 44 43 74 -21 12 -20
12 -41 -1z"/>
<path d="M2163 1163 c-21 -8 -15 -51 7 -58 40 -13 60 34 26 57 -12 9 -16 9
-33 1z"/>
<path d="M3500 1145 c-16 -19 -6 -45 19 -45 26 0 35 37 11 50 -13 7 -21 5 -30
-5z"/>
<path d="M4442 1143 c2 -10 10 -18 18 -18 8 0 16 8 18 18 2 12 -3 17 -18 17
-15 0 -20 -5 -18 -17z"/>
<path d="M2811 1128 c-7 -17 -5 -26 6 -35 29 -23 65 15 42 43 -17 21 -39 17
-48 -8z"/>
<path d="M4596 1141 c-7 -11 18 -33 27 -24 4 3 7 12 7 20 0 15 -26 18 -34 4z"/>
<path d="M811 1121 c-25 -25 -27 -44 -5 -62 26 -22 59 -21 80 2 17 19 17 23 3
47 -19 34 -52 39 -78 13z"/>
<path d="M1376 1124 c-9 -8 -16 -22 -16 -29 0 -17 27 -45 44 -45 36 0 49 62
17 80 -25 13 -27 13 -45 -6z"/>
<path d="M2316 1121 c-13 -15 -14 -20 -3 -35 17 -24 51 -17 55 11 5 32 -30 48
-52 24z"/>
<path d="M1882 1118 c-19 -19 -14 -48 11 -57 27 -11 47 3 47 34 0 32 -35 46
-58 23z"/>
<path d="M2649 1114 c-17 -20 1 -50 27 -46 26 5 35 22 23 44 -12 22 -32 23
-50 2z"/>
<path d="M1620 1106 c-19 -23 -8 -61 18 -64 44 -7 67 32 36 62 -19 20 -38 20
-54 2z"/>
<path d="M2486 1104 c-12 -12 -13 -20 -6 -35 11 -20 19 -23 44 -13 22 8 20 41
-3 54 -15 7 -23 6 -35 -6z"/>
<path d="M3167 1113 c-13 -12 -7 -41 10 -47 21 -8 48 17 40 38 -6 16 -38 22
-50 9z"/>
<path d="M3674 1105 c-4 -9 -2 -21 4 -27 15 -15 44 -1 40 19 -4 23 -36 29 -44
8z"/>
<path d="M489 1089 c-18 -34 3 -69 41 -69 22 0 33 6 41 24 16 35 -3 66 -41 66
-20 0 -33 -7 -41 -21z"/>
<path d="M1032 1078 c-19 -19 -14 -56 8 -68 44 -24 84 18 58 59 -14 23 -47 28
-66 9z"/>
<path d="M3844 1079 c-10 -17 23 -46 37 -32 7 7 9 19 6 27 -7 18 -33 21 -43 5z"/>
<path d="M2042 1061 c-8 -4 -12 -19 -10 -32 2 -18 10 -25 31 -27 27 -3 32 4
27 38 -2 14 -18 30 -30 30 -3 0 -11 -4 -18 -9z"/>
<path d="M3354 1055 c-8 -21 2 -45 19 -45 8 0 20 7 27 15 10 12 10 18 0 30 -7
8 -19 15 -27 15 -7 0 -16 -7 -19 -15z"/>
<path d="M4014 1055 c-6 -15 2 -35 14 -35 18 1 32 18 26 33 -8 21 -33 22 -40
2z"/>
<path d="M718 1049 c-22 -13 -23 -52 -2 -74 14 -14 19 -14 38 -2 27 18 32 50
11 71 -19 19 -24 19 -47 5z"/>
<path d="M1265 1043 c-28 -28 -12 -73 26 -73 26 0 50 39 39 60 -13 24 -47 31
-65 13z"/>
<path d="M3007 1041 c-5 -21 9 -41 30 -41 15 0 32 30 26 48 -7 20 -50 15 -56
-7z"/>
<path d="M4177 1036 c-7 -18 1 -26 25 -26 13 0 18 6 16 17 -4 22 -34 29 -41 9z"/>
<path d="M1513 1028 c-29 -38 -18 -68 23 -68 40 0 54 42 21 65 -26 18 -32 19
-44 3z"/>
<path d="M1766 1024 c-27 -27 3 -71 39 -58 16 7 29 39 21 53 -10 16 -46 19
-60 5z"/>
<path d="M4351 1031 c-17 -11 -7 -41 13 -41 21 0 27 15 13 33 -8 11 -17 14
-26 8z"/>
<path d="M2197 1014 c-13 -14 -7 -43 12 -53 23 -13 45 8 39 36 -3 18 -38 30
-51 17z"/>
<path d="M2846 1005 c-9 -24 4 -45 29 -45 25 0 38 21 29 45 -4 8 -16 15 -29
15 -13 0 -25 -7 -29 -15z"/>
<path d="M3533 1005 c-7 -19 13 -36 37 -32 8 1 15 11 15 22 0 26 -42 34 -52
10z"/>
<path d="M4497 1013 c-14 -13 -7 -33 11 -33 24 0 32 8 25 26 -5 15 -25 19 -36
7z"/>
<path d="M920 990 c-21 -39 14 -79 56 -63 20 7 29 50 14 68 -18 22 -57 19 -70
-5z"/>
<path d="M2354 976 c-3 -14 -3 -30 1 -35 8 -14 55 -14 56 -1 1 6 2 16 3 23 6
39 -50 51 -60 13z"/>
<path d="M2684 976 c-8 -32 2 -46 31 -46 27 0 39 24 25 51 -15 27 -48 24 -56
-5z"/>
<path d="M3212 988 c-26 -26 -2 -64 30 -47 10 5 18 16 18 24 0 21 -34 37 -48
23z"/>
<path d="M2524 976 c-11 -29 0 -51 26 -51 21 0 25 5 25 30 0 24 -5 31 -23 33
-13 2 -24 -3 -28 -12z"/>
<path d="M3720 974 c-11 -12 -11 -18 2 -30 14 -14 17 -14 32 1 13 13 14 20 5
31 -15 18 -24 18 -39 -2z"/>
<path d="M592 955 c-23 -51 27 -90 70 -55 19 15 21 22 13 46 -8 22 -18 30 -41
32 -24 2 -33 -2 -42 -23z"/>
<path d="M1153 958 c-23 -26 -4 -68 32 -68 36 0 55 42 32 68 -10 10 -24 19
-32 19 -8 0 -22 -9 -32 -19z"/>
<path d="M1914 956 c-11 -28 1 -51 28 -54 31 -4 48 29 28 53 -16 19 -49 19
-56 1z"/>
<path d="M1400 942 c-16 -13 -21 -24 -16 -40 12 -37 69 -40 78 -4 12 44 -28
71 -62 44z"/>
<path d="M3897 953 c-15 -14 -7 -43 12 -43 24 0 33 13 25 34 -6 16 -25 21 -37
9z"/>
<path d="M1642 938 c-28 -28 -1 -75 37 -63 24 7 31 24 20 53 -9 24 -38 29 -57
10z"/>
<path d="M3050 921 c-7 -15 -6 -23 6 -35 8 -9 17 -16 19 -16 2 0 11 7 19 16
18 18 6 54 -19 54 -8 0 -19 -9 -25 -19z"/>
<path d="M3393 924 c-3 -8 2 -23 11 -32 14 -15 18 -15 31 -1 9 9 13 23 9 32
-8 21 -43 22 -51 1z"/>
<path d="M4073 933 c-21 -8 -15 -43 6 -43 11 0 22 4 25 9 8 12 -17 39 -31 34z"/>
<path d="M812 913 c-10 -19 0 -57 17 -68 18 -11 52 5 60 28 12 32 -5 57 -39
57 -18 0 -33 -7 -38 -17z"/>
<path d="M2074 896 c-10 -26 4 -48 28 -44 17 2 23 10 23 28 0 18 -6 26 -23 28
-13 2 -25 -3 -28 -12z"/>
<path d="M4227 896 c-7 -18 11 -36 29 -29 21 8 17 43 -5 43 -10 0 -21 -6 -24
-14z"/>
<path d="M1052 884 c-26 -18 -28 -37 -6 -58 23 -24 53 -20 66 9 9 21 8 28 -7
45 -22 24 -24 24 -53 4z"/>
<path d="M2895 884 c-11 -12 -12 -20 -5 -35 12 -22 33 -25 49 -5 25 30 -16 67
-44 40z"/>
<path d="M3577 876 c-7 -19 18 -40 38 -32 8 3 15 15 15 26 0 14 -7 20 -24 20
-13 0 -26 -6 -29 -14z"/>
<path d="M4390 870 c0 -13 7 -20 20 -20 13 0 20 7 20 20 0 13 -7 20 -20 20
-13 0 -20 -7 -20 -20z"/>
<path d="M1802 868 c-30 -30 11 -85 44 -57 20 16 17 46 -5 59 -24 13 -24 13
-39 -2z"/>
<path d="M2233 864 c-9 -23 11 -50 33 -46 26 5 35 22 23 44 -12 22 -48 24 -56
2z"/>
<path d="M1286 855 c-24 -24 -6 -60 30 -60 25 0 30 4 32 29 5 43 -32 61 -62
31z"/>
<path d="M1544 856 c-23 -17 -26 -42 -7 -58 24 -19 42 -18 58 4 25 37 -15 80
-51 54z"/>
<path d="M2732 858 c-16 -16 -15 -23 4 -42 21 -21 31 -20 44 5 19 35 -20 65
-48 37z"/>
<path d="M3245 850 c-8 -26 6 -43 31 -38 13 2 19 12 19 28 0 34 -40 41 -50 10z"/>
<path d="M718 849 c-11 -6 -18 -22 -18 -39 0 -34 25 -51 56 -40 39 15 40 60 3
80 -21 12 -20 12 -41 -1z"/>
<path d="M2393 844 c-13 -35 34 -67 57 -39 7 8 9 23 5 35 -8 25 -53 28 -62 4z"/>
<path d="M3761 847 c-15 -19 9 -50 32 -41 20 7 22 25 5 42 -15 15 -23 15 -37
-1z"/>
<path d="M2564 836 c-10 -26 4 -48 28 -44 17 2 23 10 23 28 0 18 -6 26 -23 28
-13 2 -25 -3 -28 -12z"/>
<path d="M943 808 c-28 -37 -15 -78 26 -78 38 0 54 45 25 74 -19 19 -38 20
-51 4z"/>
<path d="M1967 812 c-24 -5 -19 -55 6 -60 25 -5 46 15 40 38 -6 21 -20 28 -46
22z"/>
<path d="M3930 801 c0 -11 6 -21 13 -24 20 -7 37 4 37 24 0 14 -7 19 -25 19
-18 0 -25 -5 -25 -19z"/>
<path d="M3092 797 c-18 -22 11 -56 35 -41 25 15 23 48 -3 52 -11 2 -26 -3
-32 -11z"/>
<path d="M3436 795 c-3 -8 2 -22 11 -31 15 -15 18 -15 29 1 7 9 10 23 7 31 -7
18 -39 18 -47 -1z"/>
<path d="M4111 781 c-12 -21 -5 -31 20 -31 21 0 31 24 16 39 -16 16 -25 14
-36 -8z"/>
<path d="M1170 775 c-16 -19 -9 -45 17 -62 19 -13 24 -12 42 6 18 18 19 25 9
46 -13 28 -48 34 -68 10z"/>
<path d="M1677 761 c-6 -25 10 -51 33 -51 23 0 39 26 33 51 -4 13 -14 19 -33
19 -19 0 -29 -6 -33 -19z"/>
<path d="M4280 765 c-15 -18 -5 -35 21 -35 12 0 19 7 19 19 0 24 -25 34 -40
16z"/>
<path d="M1433 762 c-18 -11 -19 -43 -2 -55 33 -21 74 18 49 48 -14 16 -29 19
-47 7z"/>
<path d="M2117 764 c-15 -15 -7 -52 13 -57 23 -6 43 15 38 40 -3 18 -38 30
-51 17z"/>
<path d="M2932 753 c-13 -26 -4 -43 24 -43 29 0 41 24 24 45 -17 20 -37 19
-48 -2z"/>
<path d="M3630 755 c-16 -20 -6 -45 19 -45 26 0 34 15 21 40 -13 24 -23 25
-40 5z"/>
<path d="M838 729 c-22 -12 -23 -52 -3 -69 19 -16 45 -9 62 17 13 19 12 24 -6
42 -24 24 -29 25 -53 10z"/>
<path d="M2281 727 c-16 -16 -13 -35 7 -45 25 -13 42 -4 42 23 0 25 -31 40
-49 22z"/>
<path d="M2777 733 c-12 -12 -7 -51 7 -56 23 -9 49 17 42 41 -7 21 -35 30 -49
15z"/>
<path d="M3287 734 c-14 -14 -7 -42 12 -47 26 -6 44 7 39 29 -3 19 -38 31 -51
18z"/>
<path d="M2445 714 c-18 -19 -16 -33 7 -48 12 -7 21 -6 32 3 22 18 20 38 -3
51 -15 7 -24 6 -36 -6z"/>
<path d="M2601 711 c-20 -37 31 -70 58 -37 11 13 6 45 -8 47 -3 0 -14 2 -24 4
-9 2 -21 -4 -26 -14z"/>
<path d="M3811 717 c-13 -13 -14 -34 -2 -41 16 -10 41 5 41 24 0 22 -24 32
-39 17z"/>
<path d="M1846 704 c-21 -20 -20 -41 1 -53 23 -12 53 4 53 29 0 29 -35 44 -54
24z"/>
<path d="M1065 694 c-20 -21 -16 -43 12 -61 19 -13 24 -12 42 6 13 13 18 27
14 38 -13 35 -42 42 -68 17z"/>
<path d="M1306 674 c-10 -27 -7 -43 13 -54 11 -5 26 -7 35 -4 21 8 30 42 16
59 -16 20 -56 19 -64 -1z"/>
<path d="M1567 684 c-14 -15 -7 -53 12 -59 31 -10 52 5 49 34 -2 19 -9 27 -28
29 -14 2 -29 0 -33 -4z"/>
<path d="M3143 683 c-21 -8 -16 -50 7 -56 26 -7 47 19 34 41 -12 18 -24 23
-41 15z"/>
<path d="M3485 677 c-23 -17 -14 -47 15 -47 26 0 37 27 18 46 -12 12 -17 12
-33 1z"/>
<path d="M3982 668 c2 -15 10 -23 23 -23 30 0 27 39 -3 43 -20 3 -23 0 -20
-20z"/>
<path d="M2010 662 c-23 -8 -30 -24 -19 -45 14 -25 53 -19 57 9 3 24 -17 44
-38 36z"/>
<path d="M4153 644 c-7 -18 14 -35 34 -27 7 3 13 14 13 24 0 24 -38 26 -47 3z"/>
<path d="M2974 625 c-9 -23 3 -45 25 -45 20 0 37 32 26 50 -9 15 -45 12 -51
-5z"/>
<path d="M3667 633 c-13 -12 -7 -44 8 -49 24 -10 47 14 34 37 -10 19 -30 25
-42 12z"/>
<path d="M956 615 c-13 -10 -17 -21 -12 -39 8 -32 42 -43 66 -21 20 18 21 35
1 59 -16 19 -30 20 -55 1z"/>
<path d="M2163 623 c-21 -8 -15 -51 7 -58 27 -8 40 1 40 30 0 17 -21 40 -33
34 -1 0 -8 -3 -14 -6z"/>
<path d="M1713 604 c-8 -22 10 -49 32 -49 10 0 22 7 28 16 15 24 1 49 -28 49
-15 0 -28 -7 -32 -16z"/>
<path d="M3331 606 c-15 -18 -3 -46 19 -46 24 0 33 15 25 40 -7 23 -28 26 -44
6z"/>
<path d="M1200 596 c-6 -8 -10 -25 -8 -38 4 -32 52 -38 68 -9 22 43 -29 83
-60 47z"/>
<path d="M1456 594 c-19 -18 -19 -20 -6 -45 17 -31 70 -18 70 17 0 14 -27 44
-40 44 -5 0 -16 -7 -24 -16z"/>
<path d="M2812 598 c-15 -15 3 -48 27 -48 21 0 33 22 25 45 -7 18 -35 20 -52
3z"/>
<path d="M2314 585 c-9 -23 3 -45 24 -45 28 0 43 20 31 42 -12 22 -47 24 -55
3z"/>
<path d="M2657 588 c-23 -12 -21 -45 3 -53 27 -8 40 1 40 30 0 27 -19 37 -43
23z"/>
<path d="M3851 586 c-13 -16 -4 -46 14 -46 7 0 18 6 24 14 9 11 8 18 -4 30
-20 19 -20 19 -34 2z"/>
<path d="M2484 580 c-7 -7 -9 -21 -7 -31 4 -15 13 -19 32 -17 20 2 26 8 26 28
0 28 -31 40 -51 20z"/>
<path d="M1887 559 c-20 -11 -22 -40 -5 -57 15 -15 48 3 48 27 0 27 -21 42
-43 30z"/>
<path d="M3174 545 c-9 -23 3 -45 25 -45 24 0 39 39 20 51 -21 13 -39 11 -45
-6z"/>
<path d="M3517 546 c-8 -20 19 -47 39 -39 22 8 13 47 -12 51 -12 2 -24 -4 -27
-12z"/>
<path d="M4027 541 c-6 -23 0 -31 24 -31 18 0 33 26 23 41 -10 16 -42 9 -47
-10z"/>
<path d="M1084 505 c-16 -24 -15 -27 0 -44 19 -21 36 -22 60 -2 20 17 20 35 0
55 -22 23 -41 20 -60 -9z"/>
<path d="M1599 509 c-10 -20 -9 -25 11 -41 21 -17 24 -17 41 -2 13 11 15 22
10 37 -11 31 -47 34 -62 6z"/>
<path d="M1340 505 c-15 -18 -10 -45 12 -59 22 -13 60 18 51 42 -12 33 -43 41
-63 17z"/>
<path d="M2036 505 c-12 -12 -13 -21 -6 -36 13 -23 33 -25 50 -4 29 35 -12 72
-44 40z"/>
<path d="M3023 513 c-18 -6 -16 -38 2 -53 12 -10 18 -10 30 0 8 7 15 18 15 26
0 16 -30 33 -47 27z"/>
<path d="M3707 503 c-13 -12 -7 -41 10 -47 21 -9 46 16 37 37 -6 17 -35 23
-47 10z"/>
<path d="M2206 477 c-26 -19 -17 -52 14 -52 18 0 26 6 28 21 4 30 -20 47 -42
31z"/>
<path d="M2856 474 c-12 -12 -13 -20 -6 -35 12 -22 30 -25 48 -7 18 18 15 36
-7 48 -15 7 -23 6 -35 -6z"/>
<path d="M3366 474 c-9 -22 17 -49 39 -40 10 3 15 15 13 28 -4 29 -42 37 -52
12z"/>
<path d="M1770 463 c-21 -8 -28 -22 -23 -43 10 -36 57 -35 66 1 4 15 -16 53
-26 48 -1 0 -9 -3 -17 -6z"/>
<path d="M2533 463 c-18 -6 -16 -50 2 -57 23 -8 45 4 45 25 0 20 -28 39 -47
32z"/>
<path d="M3897 463 c-10 -9 -8 -41 2 -47 16 -10 41 5 41 24 0 10 -7 21 -16 24
-19 7 -19 7 -27 -1z"/>
<path d="M2354 445 c-9 -23 3 -45 24 -45 25 0 41 18 35 41 -6 23 -51 26 -59 4z"/>
<path d="M2684 445 c-9 -23 3 -45 24 -45 28 0 43 20 31 42 -12 22 -47 24 -55
3z"/>
<path d="M1484 426 c-11 -28 1 -51 28 -54 31 -4 48 29 28 53 -16 19 -49 19
-56 1z"/>
<path d="M3222 431 c-20 -12 -11 -56 12 -56 27 0 43 29 27 49 -15 18 -21 19
-39 7z"/>
<path d="M1226 414 c-24 -23 -3 -56 32 -52 20 2 28 9 30 27 6 38 -33 54 -62
25z"/>
<path d="M3560 410 c-9 -16 -8 -21 5 -26 23 -9 47 4 43 23 -5 26 -35 28 -48 3z"/>
<path d="M1916 404 c-9 -8 -16 -19 -16 -24 0 -5 7 -16 16 -24 19 -20 54 -5 54
24 0 29 -35 44 -54 24z"/>
<path d="M3062 381 c-19 -12 -11 -45 12 -49 25 -5 39 12 31 37 -7 22 -21 26
-43 12z"/>
<path d="M3747 373 c-12 -12 -7 -41 8 -47 19 -7 46 20 39 39 -6 15 -35 20 -47
8z"/>
<path d="M1637 364 c-15 -16 -7 -53 14 -59 30 -10 58 19 43 43 -12 18 -45 28
-57 16z"/>
<path d="M2074 356 c-10 -26 4 -48 28 -44 17 2 23 10 23 28 0 18 -6 26 -23 28
-13 2 -25 -3 -28 -12z"/>
<path d="M3410 355 c-8 -10 -8 -19 -1 -33 15 -27 51 -18 51 13 0 27 -34 40
-50 20z"/>
<path d="M2903 353 c-19 -7 -16 -50 4 -57 24 -10 51 20 37 41 -12 19 -23 24
-41 16z"/>
<path d="M1372 338 c-18 -18 -15 -36 7 -48 25 -13 27 -13 45 6 12 12 13 20 6
35 -12 21 -40 25 -58 7z"/>
<path d="M2242 338 c-27 -27 5 -73 38 -53 20 12 4 65 -20 65 -3 0 -11 -5 -18
-12z"/>
<path d="M2733 333 c-7 -3 -13 -15 -13 -28 0 -30 36 -44 57 -22 26 26 -7 63
-44 50z"/>
<path d="M2402 318 c-18 -18 -15 -36 7 -48 15 -7 23 -6 35 6 9 8 16 19 16 23
0 11 -23 31 -35 31 -6 0 -16 -5 -23 -12z"/>
<path d="M2573 323 c-15 -5 -17 -32 -4 -52 13 -21 51 -4 51 24 0 18 -21 40
-33 34 -1 0 -8 -3 -14 -6z"/>
<path d="M1796 304 c-31 -30 -9 -60 42 -55 19 2 14 49 -7 61 -15 7 -23 6 -35
-6z"/>
<path d="M3267 302 c-26 -5 -19 -57 7 -57 28 0 45 31 26 48 -8 8 -23 12 -33 9z"/>
<path d="M3606 295 c-20 -20 -10 -45 19 -45 29 0 39 25 19 45 -9 8 -17 15 -19
15 -2 0 -10 -7 -19 -15z"/>
<path d="M1522 268 c-31 -31 7 -81 43 -55 23 18 16 61 -10 65 -11 1 -26 -3
-33 -10z"/>
<path d="M1949 249 c-9 -17 -8 -25 4 -37 29 -28 73 12 47 43 -17 21 -37 19
-51 -6z"/>
<path d="M3107 259 c-21 -12 -22 -45 -2 -53 22 -8 45 4 45 24 0 26 -22 40 -43
29z"/>
<path d="M3452 228 c-13 -13 2 -48 21 -48 23 0 37 22 26 42 -11 21 -30 23 -47
6z"/>
<path d="M2110 215 c-11 -13 -10 -19 5 -35 23 -25 58 -10 53 23 -4 27 -39 34
-58 12z"/>
<path d="M2934 216 c-10 -26 4 -48 28 -44 17 2 23 10 23 28 0 18 -6 26 -23 28
-13 2 -25 -3 -28 -12z"/>
<path d="M1678 202 c-19 -22 -12 -49 13 -55 27 -7 52 19 39 43 -14 26 -36 31
-52 12z"/>
<path d="M2282 198 c-16 -16 -15 -33 2 -47 22 -18 48 -2 44 28 -3 28 -27 38
-46 19z"/>
<path d="M2770 196 c-14 -18 0 -48 24 -52 23 -3 41 33 25 52 -15 18 -33 18
-49 0z"/>
<path d="M2439 179 c-9 -17 -8 -25 4 -37 18 -17 45 -10 54 14 4 11 -1 22 -12
30 -25 19 -32 18 -46 -7z"/>
<path d="M2612 188 c-28 -28 -3 -66 33 -52 20 8 19 50 -1 58 -20 8 -18 8 -32
-6z"/>
<path d="M3307 178 c-24 -13 -21 -37 6 -47 16 -7 25 -5 34 6 22 29 -8 60 -40
41z"/>
<path d="M1826 145 c-8 -22 -8 -21 10 -39 21 -22 56 -3 52 27 -4 28 -52 37
-62 12z"/>
<path d="M3137 133 c-4 -3 -7 -17 -7 -30 0 -18 6 -23 24 -23 13 0 27 7 30 16
11 28 -27 57 -47 37z"/>
<path d="M1987 113 c-22 -22 14 -72 39 -55 17 12 23 39 11 51 -12 12 -40 15
-50 4z"/>
<path d="M2974 85 c-9 -23 3 -45 25 -45 20 0 37 32 26 50 -9 15 -45 12 -51 -5z"/>
<path d="M2151 72 c-8 -15 -6 -23 8 -36 15 -13 20 -14 35 -3 10 7 17 22 14 33
-5 26 -44 30 -57 6z"/>
<path d="M2814 68 c-15 -23 -13 -38 5 -48 27 -14 60 13 45 37 -14 23 -40 28
-50 11z"/>
<path d="M2317 63 c-15 -14 -6 -51 13 -56 29 -7 53 19 40 44 -10 19 -40 26
-53 12z"/>
<path d="M2493 55 c-30 -21 -20 -57 16 -53 30 3 41 37 18 56 -10 9 -18 8 -34
-3z"/>
<path d="M2663 62 c-18 -12 -19 -44 -1 -55 18 -12 48 5 48 29 0 17 -33 35 -47
26z"/>
</g>
</svg>
